{
	"asset":{
		"generator":"Khronos glTF Blender I/O v4.5.48",
		"version":"2.0"
	},
	"scene":0,
	"scenes":[
		{
			"name":"Scene",
			"nodes":[
				0
			]
		}
	],
	"nodes":[
		{
			"mesh":0,
			"name":"Muat Sawit_1",
			"rotation":[
				0.08735435456037521,
				0.00499532138928771,
				-0.056872349232435226,
				0.9945400357246399
			],
			"translation":[
				-0.01654052548110485,
				0.05948856472969055,
				-0.6420523524284363
			]
		}
	],
	"materials":[
		{
			"doubleSided":true,
			"name":"Buah",
			"pbrMetallicRoughness":{
				"baseColorFactor":[
					0.177888423204422,
					0.03820430859923363,
					0.0331047847867012,
					1
				],
				"metallicFactor":0,
				"roughnessFactor":0.5
			}
		},
		{
			"doubleSided":true,
			"name":"Material.001",
			"pbrMetallicRoughness":{
				"baseColorFactor":[
					0.22696584463119507,
					0.11193232238292694,
					0.024157658219337463,
					1
				],
				"metallicFactor":0,
				"roughnessFactor":0.5
			}
		},
		{
			"doubleSided":true,
			"name":"Material.003",
			"pbrMetallicRoughness":{
				"baseColorFactor":[
					0.3559487462043762,
					0.2527841627597809,
					0.14208820462226868,
					1
				],
				"metallicFactor":0,
				"roughnessFactor":0.5
			}
		},
		{
			"doubleSided":true,
			"name":"Ujung",
			"pbrMetallicRoughness":{
				"baseColorFactor":[
					0.3094688355922699,
					0.1529259979724884,
					0.07818744331598282,
					1
				],
				"metallicFactor":0,
				"roughnessFactor":0.5
			}
		},
		{
			"doubleSided":true,
			"name":"Duri",
			"pbrMetallicRoughness":{
				"baseColorFactor":[
					0.18781530857086182,
					0.10968054831027985,
					0.07873213291168213,
					1
				],
				"metallicFactor":0,
				"roughnessFactor":0.5
			}
		}
	],
	"meshes":[
		{
			"name":"Cube.014",
			"primitives":[
				{
					"attributes":{
						"POSITION":0,
						"NORMAL":1,
						"TEXCOORD_0":2
					},
					"indices":3,
					"material":0
				},
				{
					"attributes":{
						"POSITION":4,
						"NORMAL":5,
						"TEXCOORD_0":6
					},
					"indices":7,
					"material":1
				},
				{
					"attributes":{
						"POSITION":8,
						"NORMAL":9,
						"TEXCOORD_0":10
					},
					"indices":11,
					"material":2
				},
				{
					"attributes":{
						"POSITION":12,
						"NORMAL":13,
						"TEXCOORD_0":14
					},
					"indices":15,
					"material":3
				},
				{
					"attributes":{
						"POSITION":16,
						"NORMAL":17,
						"TEXCOORD_0":18
					},
					"indices":19,
					"material":4
				}
			]
		}
	],
	"accessors":[
		{
			"bufferView":0,
			"componentType":5126,
			"count":222747,
			"max":[
				0.20914706587791443,
				0.4898030757904053,
				1.5142569541931152
			],
			"min":[
				-1.1941322088241577,
				-0.3507592976093292,
				-0.252553790807724
			],
			"type":"VEC3"
		},
		{
			"bufferView":1,
			"componentType":5126,
			"count":222747,
			"type":"VEC3"
		},
		{
			"bufferView":2,
			"componentType":5126,
			"count":222747,
			"type":"VEC2"
		},
		{
			"bufferView":3,
			"componentType":5125,
			"count":718536,
			"type":"SCALAR"
		},
		{
			"bufferView":4,
			"componentType":5126,
			"count":444,
			"max":[
				0.045966047793626785,
				0.5688511729240417,
				1.3266717195510864
			],
			"min":[
				-1.0560909509658813,
				0.053790803998708725,
				-0.2184992879629135
			],
			"type":"VEC3"
		},
		{
			"bufferView":5,
			"componentType":5126,
			"count":444,
			"type":"VEC3"
		},
		{
			"bufferView":6,
			"componentType":5126,
			"count":444,
			"type":"VEC2"
		},
		{
			"bufferView":7,
			"componentType":5123,
			"count":1944,
			"type":"SCALAR"
		},
		{
			"bufferView":8,
			"componentType":5126,
			"count":96,
			"max":[
				0.03524871915578842,
				0.5687869787216187,
				1.2989288568496704
			],
			"min":[
				-1.0466171503067017,
				0.159938246011734,
				-0.21221795678138733
			],
			"type":"VEC3"
		},
		{
			"bufferView":9,
			"componentType":5126,
			"count":96,
			"type":"VEC3"
		},
		{
			"bufferView":10,
			"componentType":5126,
			"count":96,
			"type":"VEC2"
		},
		{
			"bufferView":11,
			"componentType":5123,
			"count":216,
			"type":"SCALAR"
		},
		{
			"bufferView":12,
			"componentType":5126,
			"count":46140,
			"max":[
				0.21410657465457916,
				0.49441131949424744,
				1.5187221765518188
			],
			"min":[
				-1.199416160583496,
				-0.35510730743408203,
				-0.2567140758037567
			],
			"type":"VEC3"
		},
		{
			"bufferView":13,
			"componentType":5126,
			"count":46140,
			"type":"VEC3"
		},
		{
			"bufferView":14,
			"componentType":5126,
			"count":46140,
			"type":"VEC2"
		},
		{
			"bufferView":15,
			"componentType":5123,
			"count":90072,
			"type":"SCALAR"
		},
		{
			"bufferView":16,
			"componentType":5126,
			"count":17132,
			"max":[
				0.2468029260635376,
				0.48923593759536743,
				1.5474236011505127
			],
			"min":[
				-1.2253104448318481,
				-0.3819102942943573,
				-0.2842738628387451
			],
			"type":"VEC3"
		},
		{
			"bufferView":17,
			"componentType":5126,
			"count":17132,
			"type":"VEC3"
		},
		{
			"bufferView":18,
			"componentType":5126,
			"count":17132,
			"type":"VEC2"
		},
		{
			"bufferView":19,
			"componentType":5123,
			"count":31716,
			"type":"SCALAR"
		}
	],
	"bufferViews":[
		{
			"buffer":0,
			"byteLength":2672964,
			"byteOffset":0,
			"target":34962
		},
		{
			"buffer":0,
			"byteLength":2672964,
			"byteOffset":2672964,
			"target":34962
		},
		{
			"buffer":0,
			"byteLength":1781976,
			"byteOffset":5345928,
			"target":34962
		},
		{
			"buffer":0,
			"byteLength":2874144,
			"byteOffset":7127904,
			"target":34963
		},
		{
			"buffer":0,
			"byteLength":5328,
			"byteOffset":10002048,
			"target":34962
		},
		{
			"buffer":0,
			"byteLength":5328,
			"byteOffset":10007376,
			"target":34962
		},
		{
			"buffer":0,
			"byteLength":3552,
			"byteOffset":10012704,
			"target":34962
		},
		{
			"buffer":0,
			"byteLength":3888,
			"byteOffset":10016256,
			"target":34963
		},
		{
			"buffer":0,
			"byteLength":1152,
			"byteOffset":10020144,
			"target":34962
		},
		{
			"buffer":0,
			"byteLength":1152,
			"byteOffset":10021296,
			"target":34962
		},
		{
			"buffer":0,
			"byteLength":768,
			"byteOffset":10022448,
			"target":34962
		},
		{
			"buffer":0,
			"byteLength":432,
			"byteOffset":10023216,
			"target":34963
		},
		{
			"buffer":0,
			"byteLength":553680,
			"byteOffset":10023648,
			"target":34962
		},
		{
			"buffer":0,
			"byteLength":553680,
			"byteOffset":10577328,
			"target":34962
		},
		{
			"buffer":0,
			"byteLength":369120,
			"byteOffset":11131008,
			"target":34962
		},
		{
			"buffer":0,
			"byteLength":180144,
			"byteOffset":11500128,
			"target":34963
		},
		{
			"buffer":0,
			"byteLength":205584,
			"byteOffset":11680272,
			"target":34962
		},
		{
			"buffer":0,
			"byteLength":205584,
			"byteOffset":11885856,
			"target":34962
		},
		{
			"buffer":0,
			"byteLength":137056,
			"byteOffset":12091440,
			"target":34962
		},
		{
			"buffer":0,
			"byteLength":63432,
			"byteOffset":12228496,
			"target":34963
		}
	],
	"buffers":[
		{
			"byteLength":12291928,
			"uri":"Muat%20Sawit_1.bin"
		}
	]
}
