{
	"asset":{
		"generator":"Khronos glTF Blender I/O v4.5.48",
		"version":"2.0"
	},
	"scene":0,
	"scenes":[
		{
			"name":"Scene",
			"nodes":[
				0
			]
		}
	],
	"nodes":[
		{
			"mesh":0,
			"name":"Muat Sawit_2_Low Mesh",
			"rotation":[
				0.16025102138519287,
				0.009163887239992619,
				-0.05635104700922966,
				0.9854238629341125
			],
			"translation":[
				-1.4142556190490723,
				0.05948856472969055,
				-0.6420523524284363
			]
		}
	],
	"materials":[
		{
			"doubleSided":true,
			"name":"Buah",
			"pbrMetallicRoughness":{
				"baseColorFactor":[
					0.177888423204422,
					0.03820430859923363,
					0.0331047847867012,
					1
				],
				"metallicFactor":0,
				"roughnessFactor":0.5
			}
		}
	],
	"meshes":[
		{
			"name":"Cube.039",
			"primitives":[
				{
					"attributes":{
						"POSITION":0,
						"NORMAL":1,
						"TEXCOORD_0":2
					},
					"indices":3,
					"material":0
				}
			]
		}
	],
	"accessors":[
		{
			"bufferView":0,
			"componentType":5126,
			"count":384,
			"max":[
				0.2069215029478073,
				0.6556509733200073,
				1.4705450534820557
			],
			"min":[
				-0.803668737411499,
				-0.310162752866745,
				-0.21945087611675262
			],
			"type":"VEC3"
		},
		{
			"bufferView":1,
			"componentType":5126,
			"count":384,
			"type":"VEC3"
		},
		{
			"bufferView":2,
			"componentType":5126,
			"count":384,
			"type":"VEC2"
		},
		{
			"bufferView":3,
			"componentType":5123,
			"count":1536,
			"type":"SCALAR"
		}
	],
	"bufferViews":[
		{
			"buffer":0,
			"byteLength":4608,
			"byteOffset":0,
			"target":34962
		},
		{
			"buffer":0,
			"byteLength":4608,
			"byteOffset":4608,
			"target":34962
		},
		{
			"buffer":0,
			"byteLength":3072,
			"byteOffset":9216,
			"target":34962
		},
		{
			"buffer":0,
			"byteLength":3072,
			"byteOffset":12288,
			"target":34963
		}
	],
	"buffers":[
		{
			"byteLength":15360,
			"uri":"Muat%20Sawit_2_Low%20Mesh.bin"
		}
	]
}
