{
	"asset":{
		"generator":"Khronos glTF Blender I/O v4.5.48",
		"version":"2.0"
	},
	"scene":0,
	"scenes":[
		{
			"name":"Scene",
			"nodes":[
				0
			]
		}
	],
	"nodes":[
		{
			"mesh":0,
			"name":"Muat Sawit_4",
			"rotation":[
				0.08735435456037521,
				0.00499532138928771,
				-0.056872349232435226,
				0.9945400357246399
			],
			"translation":[
				-0.7369117736816406,
				0.4746646285057068,
				-0.4292966425418854
			]
		}
	],
	"materials":[
		{
			"doubleSided":true,
			"name":"Buah",
			"pbrMetallicRoughness":{
				"baseColorFactor":[
					0.177888423204422,
					0.03820430859923363,
					0.0331047847867012,
					1
				],
				"metallicFactor":0,
				"roughnessFactor":0.5
			}
		},
		{
			"doubleSided":true,
			"name":"Material.001",
			"pbrMetallicRoughness":{
				"baseColorFactor":[
					0.22696584463119507,
					0.11193232238292694,
					0.024157658219337463,
					1
				],
				"metallicFactor":0,
				"roughnessFactor":0.5
			}
		},
		{
			"doubleSided":true,
			"name":"Material.003",
			"pbrMetallicRoughness":{
				"baseColorFactor":[
					0.3559487462043762,
					0.2527841627597809,
					0.14208820462226868,
					1
				],
				"metallicFactor":0,
				"roughnessFactor":0.5
			}
		},
		{
			"doubleSided":true,
			"name":"Ujung",
			"pbrMetallicRoughness":{
				"baseColorFactor":[
					0.3094688355922699,
					0.1529259979724884,
					0.07818744331598282,
					1
				],
				"metallicFactor":0,
				"roughnessFactor":0.5
			}
		},
		{
			"doubleSided":true,
			"name":"Duri",
			"pbrMetallicRoughness":{
				"baseColorFactor":[
					0.18781530857086182,
					0.10968054831027985,
					0.07873213291168213,
					1
				],
				"metallicFactor":0,
				"roughnessFactor":0.5
			}
		}
	],
	"meshes":[
		{
			"name":"Cube.072",
			"primitives":[
				{
					"attributes":{
						"POSITION":0,
						"NORMAL":1,
						"TEXCOORD_0":2
					},
					"indices":3,
					"material":0
				},
				{
					"attributes":{
						"POSITION":4,
						"NORMAL":5,
						"TEXCOORD_0":6
					},
					"indices":7,
					"material":1
				},
				{
					"attributes":{
						"POSITION":8,
						"NORMAL":9,
						"TEXCOORD_0":10
					},
					"indices":11,
					"material":2
				},
				{
					"attributes":{
						"POSITION":12,
						"NORMAL":13,
						"TEXCOORD_0":14
					},
					"indices":15,
					"material":3
				},
				{
					"attributes":{
						"POSITION":16,
						"NORMAL":17,
						"TEXCOORD_0":18
					},
					"indices":19,
					"material":4
				}
			]
		}
	],
	"accessors":[
		{
			"bufferView":0,
			"componentType":5126,
			"count":167064,
			"max":[
				0.9609090089797974,
				0.7654558420181274,
				1.0794563293457031
			],
			"min":[
				-0.724267303943634,
				-0.3160071074962616,
				-0.19837909936904907
			],
			"type":"VEC3"
		},
		{
			"bufferView":1,
			"componentType":5126,
			"count":167064,
			"type":"VEC3"
		},
		{
			"bufferView":2,
			"componentType":5126,
			"count":167064,
			"type":"VEC2"
		},
		{
			"bufferView":3,
			"componentType":5125,
			"count":538902,
			"type":"SCALAR"
		},
		{
			"bufferView":4,
			"componentType":5126,
			"count":333,
			"max":[
				0.7051904797554016,
				0.8248937129974365,
				0.9109321236610413
			],
			"min":[
				-0.5441126227378845,
				0.16128750145435333,
				-0.04102541133761406
			],
			"type":"VEC3"
		},
		{
			"bufferView":5,
			"componentType":5126,
			"count":333,
			"type":"VEC3"
		},
		{
			"bufferView":6,
			"componentType":5126,
			"count":333,
			"type":"VEC2"
		},
		{
			"bufferView":7,
			"componentType":5123,
			"count":1458,
			"type":"SCALAR"
		},
		{
			"bufferView":8,
			"componentType":5126,
			"count":72,
			"max":[
				0.6459165811538696,
				0.8240748643875122,
				0.8873178362846375
			],
			"min":[
				-0.5249112248420715,
				0.28247126936912537,
				-0.031033338978886604
			],
			"type":"VEC3"
		},
		{
			"bufferView":9,
			"componentType":5126,
			"count":72,
			"type":"VEC3"
		},
		{
			"bufferView":10,
			"componentType":5126,
			"count":72,
			"type":"VEC2"
		},
		{
			"bufferView":11,
			"componentType":5123,
			"count":162,
			"type":"SCALAR"
		},
		{
			"bufferView":12,
			"componentType":5126,
			"count":34605,
			"max":[
				0.965747058391571,
				0.7707574367523193,
				1.0829039812088013
			],
			"min":[
				-0.7289294004440308,
				-0.3201366364955902,
				-0.2011490762233734
			],
			"type":"VEC3"
		},
		{
			"bufferView":13,
			"componentType":5126,
			"count":34605,
			"type":"VEC3"
		},
		{
			"bufferView":14,
			"componentType":5126,
			"count":34605,
			"type":"VEC2"
		},
		{
			"bufferView":15,
			"componentType":5123,
			"count":67554,
			"type":"SCALAR"
		},
		{
			"bufferView":16,
			"componentType":5126,
			"count":12851,
			"max":[
				1.0068938732147217,
				0.785423994064331,
				1.1160609722137451
			],
			"min":[
				-0.738231897354126,
				-0.33038485050201416,
				-0.22589139640331268
			],
			"type":"VEC3"
		},
		{
			"bufferView":17,
			"componentType":5126,
			"count":12851,
			"type":"VEC3"
		},
		{
			"bufferView":18,
			"componentType":5126,
			"count":12851,
			"type":"VEC2"
		},
		{
			"bufferView":19,
			"componentType":5123,
			"count":23787,
			"type":"SCALAR"
		}
	],
	"bufferViews":[
		{
			"buffer":0,
			"byteLength":2004768,
			"byteOffset":0,
			"target":34962
		},
		{
			"buffer":0,
			"byteLength":2004768,
			"byteOffset":2004768,
			"target":34962
		},
		{
			"buffer":0,
			"byteLength":1336512,
			"byteOffset":4009536,
			"target":34962
		},
		{
			"buffer":0,
			"byteLength":2155608,
			"byteOffset":5346048,
			"target":34963
		},
		{
			"buffer":0,
			"byteLength":3996,
			"byteOffset":7501656,
			"target":34962
		},
		{
			"buffer":0,
			"byteLength":3996,
			"byteOffset":7505652,
			"target":34962
		},
		{
			"buffer":0,
			"byteLength":2664,
			"byteOffset":7509648,
			"target":34962
		},
		{
			"buffer":0,
			"byteLength":2916,
			"byteOffset":7512312,
			"target":34963
		},
		{
			"buffer":0,
			"byteLength":864,
			"byteOffset":7515228,
			"target":34962
		},
		{
			"buffer":0,
			"byteLength":864,
			"byteOffset":7516092,
			"target":34962
		},
		{
			"buffer":0,
			"byteLength":576,
			"byteOffset":7516956,
			"target":34962
		},
		{
			"buffer":0,
			"byteLength":324,
			"byteOffset":7517532,
			"target":34963
		},
		{
			"buffer":0,
			"byteLength":415260,
			"byteOffset":7517856,
			"target":34962
		},
		{
			"buffer":0,
			"byteLength":415260,
			"byteOffset":7933116,
			"target":34962
		},
		{
			"buffer":0,
			"byteLength":276840,
			"byteOffset":8348376,
			"target":34962
		},
		{
			"buffer":0,
			"byteLength":135108,
			"byteOffset":8625216,
			"target":34963
		},
		{
			"buffer":0,
			"byteLength":154212,
			"byteOffset":8760324,
			"target":34962
		},
		{
			"buffer":0,
			"byteLength":154212,
			"byteOffset":8914536,
			"target":34962
		},
		{
			"buffer":0,
			"byteLength":102808,
			"byteOffset":9068748,
			"target":34962
		},
		{
			"buffer":0,
			"byteLength":47574,
			"byteOffset":9171556,
			"target":34963
		}
	],
	"buffers":[
		{
			"byteLength":9219132,
			"uri":"Muat%20Sawit_4.bin"
		}
	]
}
