{
	"asset":{
		"generator":"Khronos glTF Blender I/O v4.5.48",
		"version":"2.0"
	},
	"scene":0,
	"scenes":[
		{
			"name":"Scene",
			"nodes":[
				0
			]
		}
	],
	"nodes":[
		{
			"mesh":0,
			"name":"Muat Sawit_5",
			"rotation":[
				0.08735435456037521,
				0.00499532138928771,
				-0.056872349232435226,
				0.9945400357246399
			],
			"translation":[
				-1.6710408926010132,
				0.4746646285057068,
				-0.4292966425418854
			]
		}
	],
	"materials":[
		{
			"doubleSided":true,
			"name":"Buah",
			"pbrMetallicRoughness":{
				"baseColorFactor":[
					0.177888423204422,
					0.03820430859923363,
					0.0331047847867012,
					1
				],
				"metallicFactor":0,
				"roughnessFactor":0.5
			}
		},
		{
			"doubleSided":true,
			"name":"Material.001",
			"pbrMetallicRoughness":{
				"baseColorFactor":[
					0.22696584463119507,
					0.11193232238292694,
					0.024157658219337463,
					1
				],
				"metallicFactor":0,
				"roughnessFactor":0.5
			}
		},
		{
			"doubleSided":true,
			"name":"Material.003",
			"pbrMetallicRoughness":{
				"baseColorFactor":[
					0.3559487462043762,
					0.2527841627597809,
					0.14208820462226868,
					1
				],
				"metallicFactor":0,
				"roughnessFactor":0.5
			}
		},
		{
			"doubleSided":true,
			"name":"Ujung",
			"pbrMetallicRoughness":{
				"baseColorFactor":[
					0.3094688355922699,
					0.1529259979724884,
					0.07818744331598282,
					1
				],
				"metallicFactor":0,
				"roughnessFactor":0.5
			}
		},
		{
			"doubleSided":true,
			"name":"Duri",
			"pbrMetallicRoughness":{
				"baseColorFactor":[
					0.18781530857086182,
					0.10968054831027985,
					0.07873213291168213,
					1
				],
				"metallicFactor":0,
				"roughnessFactor":0.5
			}
		}
	],
	"meshes":[
		{
			"name":"Cube.002",
			"primitives":[
				{
					"attributes":{
						"POSITION":0,
						"NORMAL":1,
						"TEXCOORD_0":2
					},
					"indices":3,
					"material":0
				},
				{
					"attributes":{
						"POSITION":4,
						"NORMAL":5,
						"TEXCOORD_0":6
					},
					"indices":7,
					"material":1
				},
				{
					"attributes":{
						"POSITION":8,
						"NORMAL":9,
						"TEXCOORD_0":10
					},
					"indices":11,
					"material":2
				},
				{
					"attributes":{
						"POSITION":12,
						"NORMAL":13,
						"TEXCOORD_0":14
					},
					"indices":15,
					"material":3
				},
				{
					"attributes":{
						"POSITION":16,
						"NORMAL":17,
						"TEXCOORD_0":18
					},
					"indices":19,
					"material":4
				}
			]
		}
	],
	"accessors":[
		{
			"bufferView":0,
			"componentType":5126,
			"count":222763,
			"max":[
				0.9248924851417542,
				0.7932947874069214,
				1.0794563293457031
			],
			"min":[
				-0.8007641434669495,
				-0.3247847259044647,
				-0.19837909936904907
			],
			"type":"VEC3"
		},
		{
			"bufferView":1,
			"componentType":5126,
			"count":222763,
			"type":"VEC3"
		},
		{
			"bufferView":2,
			"componentType":5126,
			"count":222763,
			"type":"VEC2"
		},
		{
			"bufferView":3,
			"componentType":5125,
			"count":718536,
			"type":"SCALAR"
		},
		{
			"bufferView":4,
			"componentType":5126,
			"count":444,
			"max":[
				0.8036284446716309,
				0.8683704733848572,
				0.9109321236610413
			],
			"min":[
				-0.6206095218658447,
				0.1525099128484726,
				-0.04102541133761406
			],
			"type":"VEC3"
		},
		{
			"bufferView":5,
			"componentType":5126,
			"count":444,
			"type":"VEC3"
		},
		{
			"bufferView":6,
			"componentType":5126,
			"count":444,
			"type":"VEC2"
		},
		{
			"bufferView":7,
			"componentType":5123,
			"count":1944,
			"type":"SCALAR"
		},
		{
			"bufferView":8,
			"componentType":5126,
			"count":96,
			"max":[
				0.7968421578407288,
				0.8670282363891602,
				0.8873178362846375
			],
			"min":[
				-0.6014081239700317,
				0.27369368076324463,
				-0.031033338978886604
			],
			"type":"VEC3"
		},
		{
			"bufferView":9,
			"componentType":5126,
			"count":96,
			"type":"VEC3"
		},
		{
			"bufferView":10,
			"componentType":5126,
			"count":96,
			"type":"VEC2"
		},
		{
			"bufferView":11,
			"componentType":5123,
			"count":216,
			"type":"SCALAR"
		},
		{
			"bufferView":12,
			"componentType":5126,
			"count":46139,
			"max":[
				0.9288755655288696,
				0.7976827621459961,
				1.0829039812088013
			],
			"min":[
				-0.805426299571991,
				-0.32891422510147095,
				-0.2011490762233734
			],
			"type":"VEC3"
		},
		{
			"bufferView":13,
			"componentType":5126,
			"count":46139,
			"type":"VEC3"
		},
		{
			"bufferView":14,
			"componentType":5126,
			"count":46139,
			"type":"VEC2"
		},
		{
			"bufferView":15,
			"componentType":5123,
			"count":90072,
			"type":"SCALAR"
		},
		{
			"bufferView":16,
			"componentType":5126,
			"count":17196,
			"max":[
				0.9509984254837036,
				0.8047816157341003,
				1.1160609722137451
			],
			"min":[
				-0.814728856086731,
				-0.3391624391078949,
				-0.22589139640331268
			],
			"type":"VEC3"
		},
		{
			"bufferView":17,
			"componentType":5126,
			"count":17196,
			"type":"VEC3"
		},
		{
			"bufferView":18,
			"componentType":5126,
			"count":17196,
			"type":"VEC2"
		},
		{
			"bufferView":19,
			"componentType":5123,
			"count":31716,
			"type":"SCALAR"
		}
	],
	"bufferViews":[
		{
			"buffer":0,
			"byteLength":2673156,
			"byteOffset":0,
			"target":34962
		},
		{
			"buffer":0,
			"byteLength":2673156,
			"byteOffset":2673156,
			"target":34962
		},
		{
			"buffer":0,
			"byteLength":1782104,
			"byteOffset":5346312,
			"target":34962
		},
		{
			"buffer":0,
			"byteLength":2874144,
			"byteOffset":7128416,
			"target":34963
		},
		{
			"buffer":0,
			"byteLength":5328,
			"byteOffset":10002560,
			"target":34962
		},
		{
			"buffer":0,
			"byteLength":5328,
			"byteOffset":10007888,
			"target":34962
		},
		{
			"buffer":0,
			"byteLength":3552,
			"byteOffset":10013216,
			"target":34962
		},
		{
			"buffer":0,
			"byteLength":3888,
			"byteOffset":10016768,
			"target":34963
		},
		{
			"buffer":0,
			"byteLength":1152,
			"byteOffset":10020656,
			"target":34962
		},
		{
			"buffer":0,
			"byteLength":1152,
			"byteOffset":10021808,
			"target":34962
		},
		{
			"buffer":0,
			"byteLength":768,
			"byteOffset":10022960,
			"target":34962
		},
		{
			"buffer":0,
			"byteLength":432,
			"byteOffset":10023728,
			"target":34963
		},
		{
			"buffer":0,
			"byteLength":553668,
			"byteOffset":10024160,
			"target":34962
		},
		{
			"buffer":0,
			"byteLength":553668,
			"byteOffset":10577828,
			"target":34962
		},
		{
			"buffer":0,
			"byteLength":369112,
			"byteOffset":11131496,
			"target":34962
		},
		{
			"buffer":0,
			"byteLength":180144,
			"byteOffset":11500608,
			"target":34963
		},
		{
			"buffer":0,
			"byteLength":206352,
			"byteOffset":11680752,
			"target":34962
		},
		{
			"buffer":0,
			"byteLength":206352,
			"byteOffset":11887104,
			"target":34962
		},
		{
			"buffer":0,
			"byteLength":137568,
			"byteOffset":12093456,
			"target":34962
		},
		{
			"buffer":0,
			"byteLength":63432,
			"byteOffset":12231024,
			"target":34963
		}
	],
	"buffers":[
		{
			"byteLength":12294456,
			"uri":"Muat%20Sawit_5.bin"
		}
	]
}
