{
	"asset":{
		"generator":"Khronos glTF Blender I/O v4.5.48",
		"version":"2.0"
	},
	"scene":0,
	"scenes":[
		{
			"name":"Scene",
			"nodes":[
				0
			]
		}
	],
	"nodes":[
		{
			"mesh":0,
			"name":"Muat Sawit_4_Low Mesh",
			"rotation":[
				0.08735436201095581,
				0.00499532138928771,
				-0.05687235668301582,
				0.9945400953292847
			],
			"translation":[
				-0.7369117736816406,
				0.4746646285057068,
				-0.4292966425418854
			]
		}
	],
	"materials":[
		{
			"doubleSided":true,
			"name":"Buah",
			"pbrMetallicRoughness":{
				"baseColorFactor":[
					0.177888423204422,
					0.03820430859923363,
					0.0331047847867012,
					1
				],
				"metallicFactor":0,
				"roughnessFactor":0.5
			}
		}
	],
	"meshes":[
		{
			"name":"Cube.073",
			"primitives":[
				{
					"attributes":{
						"POSITION":0,
						"NORMAL":1,
						"TEXCOORD_0":2
					},
					"indices":3,
					"material":0
				}
			]
		}
	],
	"accessors":[
		{
			"bufferView":0,
			"componentType":5126,
			"count":432,
			"max":[
				0.9509118795394897,
				0.7489086389541626,
				1.0932729244232178
			],
			"min":[
				-0.7050654292106628,
				-0.305822491645813,
				-0.20343171060085297
			],
			"type":"VEC3"
		},
		{
			"bufferView":1,
			"componentType":5126,
			"count":432,
			"type":"VEC3"
		},
		{
			"bufferView":2,
			"componentType":5126,
			"count":432,
			"type":"VEC2"
		},
		{
			"bufferView":3,
			"componentType":5123,
			"count":1728,
			"type":"SCALAR"
		}
	],
	"bufferViews":[
		{
			"buffer":0,
			"byteLength":5184,
			"byteOffset":0,
			"target":34962
		},
		{
			"buffer":0,
			"byteLength":5184,
			"byteOffset":5184,
			"target":34962
		},
		{
			"buffer":0,
			"byteLength":3456,
			"byteOffset":10368,
			"target":34962
		},
		{
			"buffer":0,
			"byteLength":3456,
			"byteOffset":13824,
			"target":34963
		}
	],
	"buffers":[
		{
			"byteLength":17280,
			"uri":"Muat%20Sawit_4_Low%20Mesh.bin"
		}
	]
}
