{
	"asset":{
		"generator":"Khronos glTF Blender I/O v4.5.48",
		"version":"2.0"
	},
	"scene":0,
	"scenes":[
		{
			"name":"Scene",
			"nodes":[
				0
			]
		}
	],
	"nodes":[
		{
			"mesh":0,
			"name":"Muat Sawit_2",
			"rotation":[
				0.16025103628635406,
				0.009163886308670044,
				-0.05635104700922966,
				0.9854238629341125
			],
			"translation":[
				-1.4142556190490723,
				0.05948856472969055,
				-0.6420523524284363
			]
		}
	],
	"materials":[
		{
			"doubleSided":true,
			"name":"Buah",
			"pbrMetallicRoughness":{
				"baseColorFactor":[
					0.177888423204422,
					0.03820430859923363,
					0.0331047847867012,
					1
				],
				"metallicFactor":0,
				"roughnessFactor":0.5
			}
		},
		{
			"doubleSided":true,
			"name":"Material.001",
			"pbrMetallicRoughness":{
				"baseColorFactor":[
					0.22696584463119507,
					0.11193232238292694,
					0.024157658219337463,
					1
				],
				"metallicFactor":0,
				"roughnessFactor":0.5
			}
		},
		{
			"doubleSided":true,
			"name":"Material.003",
			"pbrMetallicRoughness":{
				"baseColorFactor":[
					0.3559487462043762,
					0.2527841627597809,
					0.14208820462226868,
					1
				],
				"metallicFactor":0,
				"roughnessFactor":0.5
			}
		},
		{
			"doubleSided":true,
			"name":"Ujung",
			"pbrMetallicRoughness":{
				"baseColorFactor":[
					0.3094688355922699,
					0.1529259979724884,
					0.07818744331598282,
					1
				],
				"metallicFactor":0,
				"roughnessFactor":0.5
			}
		},
		{
			"doubleSided":true,
			"name":"Duri",
			"pbrMetallicRoughness":{
				"baseColorFactor":[
					0.18781530857086182,
					0.10968054831027985,
					0.07873213291168213,
					1
				],
				"metallicFactor":0,
				"roughnessFactor":0.5
			}
		}
	],
	"meshes":[
		{
			"name":"Cube.038",
			"primitives":[
				{
					"attributes":{
						"POSITION":0,
						"NORMAL":1,
						"TEXCOORD_0":2
					},
					"indices":3,
					"material":0
				},
				{
					"attributes":{
						"POSITION":4,
						"NORMAL":5,
						"TEXCOORD_0":6
					},
					"indices":7,
					"material":1
				},
				{
					"attributes":{
						"POSITION":8,
						"NORMAL":9,
						"TEXCOORD_0":10
					},
					"indices":11,
					"material":2
				},
				{
					"attributes":{
						"POSITION":12,
						"NORMAL":13,
						"TEXCOORD_0":14
					},
					"indices":15,
					"material":3
				},
				{
					"attributes":{
						"POSITION":16,
						"NORMAL":17,
						"TEXCOORD_0":18
					},
					"indices":19,
					"material":4
				}
			]
		}
	],
	"accessors":[
		{
			"bufferView":0,
			"componentType":5126,
			"count":148503,
			"max":[
				0.21470579504966736,
				0.6726861000061035,
				1.4562695026397705
			],
			"min":[
				-0.813408613204956,
				-0.3221985101699829,
				-0.21316473186016083
			],
			"type":"VEC3"
		},
		{
			"bufferView":1,
			"componentType":5126,
			"count":148503,
			"type":"VEC3"
		},
		{
			"bufferView":2,
			"componentType":5126,
			"count":148503,
			"type":"VEC2"
		},
		{
			"bufferView":3,
			"componentType":5125,
			"count":479016,
			"type":"SCALAR"
		},
		{
			"bufferView":4,
			"componentType":5126,
			"count":296,
			"max":[
				0.08930663019418716,
				0.745149552822113,
				1.2510722875595093
			],
			"min":[
				-0.6280307769775391,
				0.14651718735694885,
				-0.08786208927631378
			],
			"type":"VEC3"
		},
		{
			"bufferView":5,
			"componentType":5126,
			"count":296,
			"type":"VEC3"
		},
		{
			"bufferView":6,
			"componentType":5126,
			"count":296,
			"type":"VEC2"
		},
		{
			"bufferView":7,
			"componentType":5123,
			"count":1296,
			"type":"SCALAR"
		},
		{
			"bufferView":8,
			"componentType":5126,
			"count":64,
			"max":[
				0.08241941034793854,
				0.7434158325195312,
				1.2082816362380981
			],
			"min":[
				-0.6130020618438721,
				0.2673282325267792,
				-0.07999903708696365
			],
			"type":"VEC3"
		},
		{
			"bufferView":9,
			"componentType":5126,
			"count":64,
			"type":"VEC3"
		},
		{
			"bufferView":10,
			"componentType":5126,
			"count":64,
			"type":"VEC2"
		},
		{
			"bufferView":11,
			"componentType":5123,
			"count":144,
			"type":"SCALAR"
		},
		{
			"bufferView":12,
			"componentType":5126,
			"count":30760,
			"max":[
				0.21843954920768738,
				0.6775544881820679,
				1.4607239961624146
			],
			"min":[
				-0.8182169198989868,
				-0.32643797993659973,
				-0.2169593870639801
			],
			"type":"VEC3"
		},
		{
			"bufferView":13,
			"componentType":5126,
			"count":30760,
			"type":"VEC3"
		},
		{
			"bufferView":14,
			"componentType":5126,
			"count":30760,
			"type":"VEC2"
		},
		{
			"bufferView":15,
			"componentType":5123,
			"count":60048,
			"type":"SCALAR"
		},
		{
			"bufferView":16,
			"componentType":5126,
			"count":11437,
			"max":[
				0.24733783304691315,
				0.6846890449523926,
				1.4954434633255005
			],
			"min":[
				-0.8387982249259949,
				-0.3449576795101166,
				-0.2435813546180725
			],
			"type":"VEC3"
		},
		{
			"bufferView":17,
			"componentType":5126,
			"count":11437,
			"type":"VEC3"
		},
		{
			"bufferView":18,
			"componentType":5126,
			"count":11437,
			"type":"VEC2"
		},
		{
			"bufferView":19,
			"componentType":5123,
			"count":21147,
			"type":"SCALAR"
		}
	],
	"bufferViews":[
		{
			"buffer":0,
			"byteLength":1782036,
			"byteOffset":0,
			"target":34962
		},
		{
			"buffer":0,
			"byteLength":1782036,
			"byteOffset":1782036,
			"target":34962
		},
		{
			"buffer":0,
			"byteLength":1188024,
			"byteOffset":3564072,
			"target":34962
		},
		{
			"buffer":0,
			"byteLength":1916064,
			"byteOffset":4752096,
			"target":34963
		},
		{
			"buffer":0,
			"byteLength":3552,
			"byteOffset":6668160,
			"target":34962
		},
		{
			"buffer":0,
			"byteLength":3552,
			"byteOffset":6671712,
			"target":34962
		},
		{
			"buffer":0,
			"byteLength":2368,
			"byteOffset":6675264,
			"target":34962
		},
		{
			"buffer":0,
			"byteLength":2592,
			"byteOffset":6677632,
			"target":34963
		},
		{
			"buffer":0,
			"byteLength":768,
			"byteOffset":6680224,
			"target":34962
		},
		{
			"buffer":0,
			"byteLength":768,
			"byteOffset":6680992,
			"target":34962
		},
		{
			"buffer":0,
			"byteLength":512,
			"byteOffset":6681760,
			"target":34962
		},
		{
			"buffer":0,
			"byteLength":288,
			"byteOffset":6682272,
			"target":34963
		},
		{
			"buffer":0,
			"byteLength":369120,
			"byteOffset":6682560,
			"target":34962
		},
		{
			"buffer":0,
			"byteLength":369120,
			"byteOffset":7051680,
			"target":34962
		},
		{
			"buffer":0,
			"byteLength":246080,
			"byteOffset":7420800,
			"target":34962
		},
		{
			"buffer":0,
			"byteLength":120096,
			"byteOffset":7666880,
			"target":34963
		},
		{
			"buffer":0,
			"byteLength":137244,
			"byteOffset":7786976,
			"target":34962
		},
		{
			"buffer":0,
			"byteLength":137244,
			"byteOffset":7924220,
			"target":34962
		},
		{
			"buffer":0,
			"byteLength":91496,
			"byteOffset":8061464,
			"target":34962
		},
		{
			"buffer":0,
			"byteLength":42294,
			"byteOffset":8152960,
			"target":34963
		}
	],
	"buffers":[
		{
			"byteLength":8195256,
			"uri":"Muat%20Sawit_2.bin"
		}
	]
}
