{
	"asset":{
		"generator":"Khronos glTF Blender I/O v4.5.48",
		"version":"2.0"
	},
	"scene":0,
	"scenes":[
		{
			"name":"Scene",
			"nodes":[
				0
			]
		}
	],
	"nodes":[
		{
			"mesh":0,
			"name":"Muat Sawit_3",
			"rotation":[
				0.08735435456037521,
				0.00499532138928771,
				-0.056872349232435226,
				0.9945400357246399
			],
			"translation":[
				-2.4421262741088867,
				0.05948856472969055,
				-0.6420523524284363
			]
		}
	],
	"materials":[
		{
			"doubleSided":true,
			"name":"Buah",
			"pbrMetallicRoughness":{
				"baseColorFactor":[
					0.177888423204422,
					0.03820430859923363,
					0.0331047847867012,
					1
				],
				"metallicFactor":0,
				"roughnessFactor":0.5
			}
		},
		{
			"doubleSided":true,
			"name":"Material.001",
			"pbrMetallicRoughness":{
				"baseColorFactor":[
					0.22696584463119507,
					0.11193232238292694,
					0.024157658219337463,
					1
				],
				"metallicFactor":0,
				"roughnessFactor":0.5
			}
		},
		{
			"doubleSided":true,
			"name":"Material.003",
			"pbrMetallicRoughness":{
				"baseColorFactor":[
					0.3559487462043762,
					0.2527841627597809,
					0.14208820462226868,
					1
				],
				"metallicFactor":0,
				"roughnessFactor":0.5
			}
		},
		{
			"doubleSided":true,
			"name":"Ujung",
			"pbrMetallicRoughness":{
				"baseColorFactor":[
					0.3094688355922699,
					0.1529259979724884,
					0.07818744331598282,
					1
				],
				"metallicFactor":0,
				"roughnessFactor":0.5
			}
		},
		{
			"doubleSided":true,
			"name":"Duri",
			"pbrMetallicRoughness":{
				"baseColorFactor":[
					0.18781530857086182,
					0.10968054831027985,
					0.07873213291168213,
					1
				],
				"metallicFactor":0,
				"roughnessFactor":0.5
			}
		}
	],
	"meshes":[
		{
			"name":"Cube.054",
			"primitives":[
				{
					"attributes":{
						"POSITION":0,
						"NORMAL":1,
						"TEXCOORD_0":2
					},
					"indices":3,
					"material":0
				},
				{
					"attributes":{
						"POSITION":4,
						"NORMAL":5,
						"TEXCOORD_0":6
					},
					"indices":7,
					"material":1
				},
				{
					"attributes":{
						"POSITION":8,
						"NORMAL":9,
						"TEXCOORD_0":10
					},
					"indices":11,
					"material":2
				},
				{
					"attributes":{
						"POSITION":12,
						"NORMAL":13,
						"TEXCOORD_0":14
					},
					"indices":15,
					"material":3
				},
				{
					"attributes":{
						"POSITION":16,
						"NORMAL":17,
						"TEXCOORD_0":18
					},
					"indices":19,
					"material":4
				}
			]
		}
	],
	"accessors":[
		{
			"bufferView":0,
			"componentType":5126,
			"count":167062,
			"max":[
				2.6447315216064453,
				1.108655571937561,
				1.4974147081375122
			],
			"min":[
				-0.29023900628089905,
				-0.26025012135505676,
				-0.19837909936904907
			],
			"type":"VEC3"
		},
		{
			"bufferView":1,
			"componentType":5126,
			"count":167062,
			"type":"VEC3"
		},
		{
			"bufferView":2,
			"componentType":5126,
			"count":167062,
			"type":"VEC2"
		},
		{
			"bufferView":3,
			"componentType":5125,
			"count":538902,
			"type":"SCALAR"
		},
		{
			"bufferView":4,
			"componentType":5126,
			"count":333,
			"max":[
				2.4870688915252686,
				1.162068247795105,
				1.3266717195510864
			],
			"min":[
				-0.15199518203735352,
				0.21704448759555817,
				-0.04102541133761406
			],
			"type":"VEC3"
		},
		{
			"bufferView":5,
			"componentType":5126,
			"count":333,
			"type":"VEC3"
		},
		{
			"bufferView":6,
			"componentType":5126,
			"count":333,
			"type":"VEC2"
		},
		{
			"bufferView":7,
			"componentType":5123,
			"count":1458,
			"type":"SCALAR"
		},
		{
			"bufferView":8,
			"componentType":5126,
			"count":72,
			"max":[
				2.469571352005005,
				1.1616686582565308,
				1.2989288568496704
			],
			"min":[
				-0.14385709166526794,
				0.3382282555103302,
				-0.031033338978886604
			],
			"type":"VEC3"
		},
		{
			"bufferView":9,
			"componentType":5126,
			"count":72,
			"type":"VEC3"
		},
		{
			"bufferView":10,
			"componentType":5126,
			"count":72,
			"type":"VEC2"
		},
		{
			"bufferView":11,
			"componentType":5123,
			"count":162,
			"type":"SCALAR"
		},
		{
			"bufferView":12,
			"componentType":5126,
			"count":34601,
			"max":[
				2.64775013923645,
				1.113040804862976,
				1.5017207860946655
			],
			"min":[
				-0.2953920364379883,
				-0.2643796503543854,
				-0.2011490762233734
			],
			"type":"VEC3"
		},
		{
			"bufferView":13,
			"componentType":5126,
			"count":34601,
			"type":"VEC3"
		},
		{
			"bufferView":14,
			"componentType":5126,
			"count":34601,
			"type":"VEC2"
		},
		{
			"bufferView":15,
			"componentType":5123,
			"count":67554,
			"type":"SCALAR"
		},
		{
			"bufferView":16,
			"componentType":5126,
			"count":12860,
			"max":[
				2.6850907802581787,
				1.1290143728256226,
				1.5357807874679565
			],
			"min":[
				-0.32142162322998047,
				-0.2746278643608093,
				-0.22589139640331268
			],
			"type":"VEC3"
		},
		{
			"bufferView":17,
			"componentType":5126,
			"count":12860,
			"type":"VEC3"
		},
		{
			"bufferView":18,
			"componentType":5126,
			"count":12860,
			"type":"VEC2"
		},
		{
			"bufferView":19,
			"componentType":5123,
			"count":23787,
			"type":"SCALAR"
		}
	],
	"bufferViews":[
		{
			"buffer":0,
			"byteLength":2004744,
			"byteOffset":0,
			"target":34962
		},
		{
			"buffer":0,
			"byteLength":2004744,
			"byteOffset":2004744,
			"target":34962
		},
		{
			"buffer":0,
			"byteLength":1336496,
			"byteOffset":4009488,
			"target":34962
		},
		{
			"buffer":0,
			"byteLength":2155608,
			"byteOffset":5345984,
			"target":34963
		},
		{
			"buffer":0,
			"byteLength":3996,
			"byteOffset":7501592,
			"target":34962
		},
		{
			"buffer":0,
			"byteLength":3996,
			"byteOffset":7505588,
			"target":34962
		},
		{
			"buffer":0,
			"byteLength":2664,
			"byteOffset":7509584,
			"target":34962
		},
		{
			"buffer":0,
			"byteLength":2916,
			"byteOffset":7512248,
			"target":34963
		},
		{
			"buffer":0,
			"byteLength":864,
			"byteOffset":7515164,
			"target":34962
		},
		{
			"buffer":0,
			"byteLength":864,
			"byteOffset":7516028,
			"target":34962
		},
		{
			"buffer":0,
			"byteLength":576,
			"byteOffset":7516892,
			"target":34962
		},
		{
			"buffer":0,
			"byteLength":324,
			"byteOffset":7517468,
			"target":34963
		},
		{
			"buffer":0,
			"byteLength":415212,
			"byteOffset":7517792,
			"target":34962
		},
		{
			"buffer":0,
			"byteLength":415212,
			"byteOffset":7933004,
			"target":34962
		},
		{
			"buffer":0,
			"byteLength":276808,
			"byteOffset":8348216,
			"target":34962
		},
		{
			"buffer":0,
			"byteLength":135108,
			"byteOffset":8625024,
			"target":34963
		},
		{
			"buffer":0,
			"byteLength":154320,
			"byteOffset":8760132,
			"target":34962
		},
		{
			"buffer":0,
			"byteLength":154320,
			"byteOffset":8914452,
			"target":34962
		},
		{
			"buffer":0,
			"byteLength":102880,
			"byteOffset":9068772,
			"target":34962
		},
		{
			"buffer":0,
			"byteLength":47574,
			"byteOffset":9171652,
			"target":34963
		}
	],
	"buffers":[
		{
			"byteLength":9219228,
			"uri":"Muat%20Sawit_3.bin"
		}
	]
}
