{
	"asset":{
		"generator":"Khronos glTF Blender I/O v3.6.27",
		"version":"2.0"
	},
	"scene":0,
	"scenes":[
		{
			"extras":{
				"sun_pos_properties":{
					"show_surface":0,
					"show_analemmas":0,
					"show_north":0,
					"latitude":0.0,
					"day_of_year":318,
					"sun_object":{},
					"object_collection":{}
				}
			},
			"name":"Scene",
			"nodes":[
				2
			]
		}
	],
	"nodes":[
		{
			"mesh":0,
			"name":"BAN.001",
			"rotation":[
				0.7071068286895752,
				0,
				0,
				0.7071068286895752
			],
			"scale":[
				1.2252006530761719,
				1.2851569652557373,
				1.225041389465332
			],
			"translation":[
				-0.19283604621887207,
				-0.8950525522232056,
				0.9431672692298889
			]
		},
		{
			"mesh":1,
			"name":"BAN.002",
			"rotation":[
				0.7071068286895752,
				0,
				0,
				0.7071068286895752
			],
			"scale":[
				1.2252006530761719,
				1.2851569652557373,
				1.225041389465332
			],
			"translation":[
				-2.8340320587158203,
				-0.8950525522232056,
				0.9331979751586914
			]
		},
		{
			"children":[
				0,
				1
			],
			"mesh":2,
			"name":"Kepala",
			"translation":[
				1.22062087059021,
				0.2122340202331543,
				0
			]
		}
	],
	"materials":[
		{
			"doubleSided":true,
			"name":"Material",
			"pbrMetallicRoughness":{
				"baseColorFactor":[
					0,
					0,
					0,
					1
				],
				"metallicFactor":0,
				"roughnessFactor":0.5
			}
		},
		{
			"doubleSided":true,
			"name":"Metal",
			"pbrMetallicRoughness":{
				"baseColorFactor":[
					0.4898499846458435,
					0.4898499846458435,
					0.4898499846458435,
					1
				],
				"roughnessFactor":0.5
			}
		},
		{
			"doubleSided":true,
			"name":"Hitam Baja",
			"pbrMetallicRoughness":{
				"baseColorFactor":[
					0.00790735799819231,
					0.00790735799819231,
					0.00790735799819231,
					1
				],
				"metallicFactor":0,
				"roughnessFactor":0.5
			}
		},
		{
			"doubleSided":true,
			"name":"Hitam Plastik",
			"pbrMetallicRoughness":{
				"baseColorFactor":[
					0.024738114327192307,
					0.024738114327192307,
					0.024738114327192307,
					1
				],
				"metallicFactor":0,
				"roughnessFactor":0.5
			}
		},
		{
			"doubleSided":true,
			"name":"Lampu Putih",
			"pbrMetallicRoughness":{}
		},
		{
			"alphaMode":"BLEND",
			"doubleSided":true,
			"emissiveFactor":[
				0.47439502251458876,
				0.05996398891345711,
				0.014396408541833439
			],
			"name":"LAMPU KUNING",
			"pbrMetallicRoughness":{
				"baseColorFactor":[
					0,
					0,
					0,
					1
				]
			}
		},
		{
			"alphaMode":"BLEND",
			"doubleSided":true,
			"emissiveFactor":[
				0.23286165669560432,
				0,
				0.0037435119156725705
			],
			"name":"Merah.001",
			"pbrMetallicRoughness":{
				"baseColorFactor":[
					0,
					0,
					0,
					1
				]
			}
		},
		{
			"alphaMode":"BLEND",
			"doubleSided":true,
			"name":"Kaca.001",
			"pbrMetallicRoughness":{
				"baseColorFactor":[
					0.010404327884316444,
					0.010290974751114845,
					0.014669581316411495,
					1
				],
				"metallicFactor":0,
				"roughnessFactor":0.0714285746216774
			}
		}
	],
	"meshes":[
		{
			"name":"Cylinder.023",
			"primitives":[
				{
					"attributes":{
						"POSITION":0,
						"NORMAL":1,
						"TEXCOORD_0":2
					},
					"indices":3,
					"material":0
				},
				{
					"attributes":{
						"POSITION":4,
						"NORMAL":5,
						"TEXCOORD_0":6
					},
					"indices":7,
					"material":1
				}
			]
		},
		{
			"name":"Cylinder.020",
			"primitives":[
				{
					"attributes":{
						"POSITION":8,
						"NORMAL":9,
						"TEXCOORD_0":10
					},
					"indices":3,
					"material":0
				},
				{
					"attributes":{
						"POSITION":11,
						"NORMAL":12,
						"TEXCOORD_0":13
					},
					"indices":7,
					"material":1
				}
			]
		},
		{
			"name":"Cube.001",
			"primitives":[
				{
					"attributes":{
						"POSITION":14,
						"NORMAL":15,
						"TEXCOORD_0":16
					},
					"indices":17,
					"material":2
				},
				{
					"attributes":{
						"POSITION":18,
						"NORMAL":19,
						"TEXCOORD_0":20
					},
					"indices":21,
					"material":3
				},
				{
					"attributes":{
						"POSITION":22,
						"NORMAL":23,
						"TEXCOORD_0":24
					},
					"indices":25,
					"material":1
				},
				{
					"attributes":{
						"POSITION":26,
						"NORMAL":27,
						"TEXCOORD_0":28
					},
					"indices":29,
					"material":4
				},
				{
					"attributes":{
						"POSITION":30,
						"NORMAL":31,
						"TEXCOORD_0":32
					},
					"indices":33,
					"material":5
				},
				{
					"attributes":{
						"POSITION":34,
						"NORMAL":35,
						"TEXCOORD_0":36
					},
					"indices":37,
					"material":6
				},
				{
					"attributes":{
						"POSITION":38,
						"NORMAL":39,
						"TEXCOORD_0":40
					},
					"indices":41,
					"material":7
				}
			]
		}
	],
	"accessors":[
		{
			"bufferView":0,
			"componentType":5126,
			"count":83544,
			"max":[
				0.31099626421928406,
				0.09320173412561417,
				0.31101465225219727
			],
			"min":[
				-0.31094875931739807,
				-1.560987114906311,
				-0.3110114336013794
			],
			"type":"VEC3"
		},
		{
			"bufferView":1,
			"componentType":5126,
			"count":83544,
			"type":"VEC3"
		},
		{
			"bufferView":2,
			"componentType":5126,
			"count":83544,
			"type":"VEC2"
		},
		{
			"bufferView":3,
			"componentType":5125,
			"count":183480,
			"type":"SCALAR"
		},
		{
			"bufferView":4,
			"componentType":5126,
			"count":9322,
			"max":[
				0.19367416203022003,
				0.08958753943443298,
				0.19369933009147644
			],
			"min":[
				-0.19367414712905884,
				-1.5573729276657104,
				-0.19369952380657196
			],
			"type":"VEC3"
		},
		{
			"bufferView":5,
			"componentType":5126,
			"count":9322,
			"type":"VEC3"
		},
		{
			"bufferView":6,
			"componentType":5126,
			"count":9322,
			"type":"VEC2"
		},
		{
			"bufferView":7,
			"componentType":5123,
			"count":42168,
			"type":"SCALAR"
		},
		{
			"bufferView":8,
			"componentType":5126,
			"count":83544,
			"max":[
				0.31099626421928406,
				0.09320173412561417,
				0.31101465225219727
			],
			"min":[
				-0.31094875931739807,
				-1.545472502708435,
				-0.3110114336013794
			],
			"type":"VEC3"
		},
		{
			"bufferView":9,
			"componentType":5126,
			"count":83544,
			"type":"VEC3"
		},
		{
			"bufferView":10,
			"componentType":5126,
			"count":83544,
			"type":"VEC2"
		},
		{
			"bufferView":11,
			"componentType":5126,
			"count":9322,
			"max":[
				0.19367416203022003,
				0.08958753943443298,
				0.19369933009147644
			],
			"min":[
				-0.19367414712905884,
				-1.5418583154678345,
				-0.19369952380657196
			],
			"type":"VEC3"
		},
		{
			"bufferView":12,
			"componentType":5126,
			"count":9322,
			"type":"VEC3"
		},
		{
			"bufferView":13,
			"componentType":5126,
			"count":9322,
			"type":"VEC2"
		},
		{
			"bufferView":14,
			"componentType":5126,
			"count":19418,
			"max":[
				0.842626690864563,
				0.8490607142448425,
				1.1288608312606812
			],
			"min":[
				-4.119848728179932,
				-1.095946192741394,
				-1.1288608312606812
			],
			"type":"VEC3"
		},
		{
			"bufferView":15,
			"componentType":5126,
			"count":19418,
			"type":"VEC3"
		},
		{
			"bufferView":16,
			"componentType":5126,
			"count":19418,
			"type":"VEC2"
		},
		{
			"bufferView":17,
			"componentType":5123,
			"count":50310,
			"type":"SCALAR"
		},
		{
			"bufferView":18,
			"componentType":5126,
			"count":4019,
			"max":[
				0.8693292140960693,
				0.42617782950401306,
				1.229051113128662
			],
			"min":[
				-0.8255369663238525,
				-0.8218104243278503,
				-1.229051113128662
			],
			"type":"VEC3"
		},
		{
			"bufferView":19,
			"componentType":5126,
			"count":4019,
			"type":"VEC3"
		},
		{
			"bufferView":20,
			"componentType":5126,
			"count":4019,
			"type":"VEC2"
		},
		{
			"bufferView":21,
			"componentType":5123,
			"count":10617,
			"type":"SCALAR"
		},
		{
			"bufferView":22,
			"componentType":5126,
			"count":2755,
			"max":[
				0.8452959656715393,
				0.06984803825616837,
				1.1094398498535156
			],
			"min":[
				-0.5613813996315002,
				-0.3824347257614136,
				-1.1094399690628052
			],
			"type":"VEC3"
		},
		{
			"bufferView":23,
			"componentType":5126,
			"count":2755,
			"type":"VEC3"
		},
		{
			"bufferView":24,
			"componentType":5126,
			"count":2755,
			"type":"VEC2"
		},
		{
			"bufferView":25,
			"componentType":5123,
			"count":10392,
			"type":"SCALAR"
		},
		{
			"bufferView":26,
			"componentType":5126,
			"count":718,
			"max":[
				0.8298956155776978,
				-0.1283593475818634,
				1.0972365140914917
			],
			"min":[
				-4.120362281799316,
				-0.6669529676437378,
				-1.0972365140914917
			],
			"type":"VEC3"
		},
		{
			"bufferView":27,
			"componentType":5126,
			"count":718,
			"type":"VEC3"
		},
		{
			"bufferView":28,
			"componentType":5126,
			"count":718,
			"type":"VEC2"
		},
		{
			"bufferView":29,
			"componentType":5123,
			"count":3792,
			"type":"SCALAR"
		},
		{
			"bufferView":30,
			"componentType":5126,
			"count":372,
			"max":[
				0.8184993267059326,
				-0.24110715091228485,
				1.1111832857131958
			],
			"min":[
				-4.120362281799316,
				-0.7896578311920166,
				-1.1111832857131958
			],
			"type":"VEC3"
		},
		{
			"bufferView":31,
			"componentType":5126,
			"count":372,
			"type":"VEC3"
		},
		{
			"bufferView":32,
			"componentType":5126,
			"count":372,
			"type":"VEC2"
		},
		{
			"bufferView":33,
			"componentType":5123,
			"count":1632,
			"type":"SCALAR"
		},
		{
			"bufferView":34,
			"componentType":5126,
			"count":48,
			"max":[
				-4.011066913604736,
				-0.557657778263092,
				0.7752469778060913
			],
			"min":[
				-4.120362281799316,
				-0.6669529676437378,
				-0.7752471566200256
			],
			"type":"VEC3"
		},
		{
			"bufferView":35,
			"componentType":5126,
			"count":48,
			"type":"VEC3"
		},
		{
			"bufferView":36,
			"componentType":5126,
			"count":48,
			"type":"VEC2"
		},
		{
			"bufferView":37,
			"componentType":5123,
			"count":120,
			"type":"SCALAR"
		},
		{
			"bufferView":38,
			"componentType":5126,
			"count":376,
			"max":[
				0.6125810146331787,
				0.7755804061889648,
				1.2217899560928345
			],
			"min":[
				-0.8369540572166443,
				0.21815119683742523,
				-1.2217899560928345
			],
			"type":"VEC3"
		},
		{
			"bufferView":39,
			"componentType":5126,
			"count":376,
			"type":"VEC3"
		},
		{
			"bufferView":40,
			"componentType":5126,
			"count":376,
			"type":"VEC2"
		},
		{
			"bufferView":41,
			"componentType":5123,
			"count":1416,
			"type":"SCALAR"
		}
	],
	"bufferViews":[
		{
			"buffer":0,
			"byteLength":1002528,
			"byteOffset":0,
			"target":34962
		},
		{
			"buffer":0,
			"byteLength":1002528,
			"byteOffset":1002528,
			"target":34962
		},
		{
			"buffer":0,
			"byteLength":668352,
			"byteOffset":2005056,
			"target":34962
		},
		{
			"buffer":0,
			"byteLength":733920,
			"byteOffset":2673408,
			"target":34963
		},
		{
			"buffer":0,
			"byteLength":111864,
			"byteOffset":3407328,
			"target":34962
		},
		{
			"buffer":0,
			"byteLength":111864,
			"byteOffset":3519192,
			"target":34962
		},
		{
			"buffer":0,
			"byteLength":74576,
			"byteOffset":3631056,
			"target":34962
		},
		{
			"buffer":0,
			"byteLength":84336,
			"byteOffset":3705632,
			"target":34963
		},
		{
			"buffer":0,
			"byteLength":1002528,
			"byteOffset":3789968,
			"target":34962
		},
		{
			"buffer":0,
			"byteLength":1002528,
			"byteOffset":4792496,
			"target":34962
		},
		{
			"buffer":0,
			"byteLength":668352,
			"byteOffset":5795024,
			"target":34962
		},
		{
			"buffer":0,
			"byteLength":111864,
			"byteOffset":6463376,
			"target":34962
		},
		{
			"buffer":0,
			"byteLength":111864,
			"byteOffset":6575240,
			"target":34962
		},
		{
			"buffer":0,
			"byteLength":74576,
			"byteOffset":6687104,
			"target":34962
		},
		{
			"buffer":0,
			"byteLength":233016,
			"byteOffset":6761680,
			"target":34962
		},
		{
			"buffer":0,
			"byteLength":233016,
			"byteOffset":6994696,
			"target":34962
		},
		{
			"buffer":0,
			"byteLength":155344,
			"byteOffset":7227712,
			"target":34962
		},
		{
			"buffer":0,
			"byteLength":100620,
			"byteOffset":7383056,
			"target":34963
		},
		{
			"buffer":0,
			"byteLength":48228,
			"byteOffset":7483676,
			"target":34962
		},
		{
			"buffer":0,
			"byteLength":48228,
			"byteOffset":7531904,
			"target":34962
		},
		{
			"buffer":0,
			"byteLength":32152,
			"byteOffset":7580132,
			"target":34962
		},
		{
			"buffer":0,
			"byteLength":21234,
			"byteOffset":7612284,
			"target":34963
		},
		{
			"buffer":0,
			"byteLength":33060,
			"byteOffset":7633520,
			"target":34962
		},
		{
			"buffer":0,
			"byteLength":33060,
			"byteOffset":7666580,
			"target":34962
		},
		{
			"buffer":0,
			"byteLength":22040,
			"byteOffset":7699640,
			"target":34962
		},
		{
			"buffer":0,
			"byteLength":20784,
			"byteOffset":7721680,
			"target":34963
		},
		{
			"buffer":0,
			"byteLength":8616,
			"byteOffset":7742464,
			"target":34962
		},
		{
			"buffer":0,
			"byteLength":8616,
			"byteOffset":7751080,
			"target":34962
		},
		{
			"buffer":0,
			"byteLength":5744,
			"byteOffset":7759696,
			"target":34962
		},
		{
			"buffer":0,
			"byteLength":7584,
			"byteOffset":7765440,
			"target":34963
		},
		{
			"buffer":0,
			"byteLength":4464,
			"byteOffset":7773024,
			"target":34962
		},
		{
			"buffer":0,
			"byteLength":4464,
			"byteOffset":7777488,
			"target":34962
		},
		{
			"buffer":0,
			"byteLength":2976,
			"byteOffset":7781952,
			"target":34962
		},
		{
			"buffer":0,
			"byteLength":3264,
			"byteOffset":7784928,
			"target":34963
		},
		{
			"buffer":0,
			"byteLength":576,
			"byteOffset":7788192,
			"target":34962
		},
		{
			"buffer":0,
			"byteLength":576,
			"byteOffset":7788768,
			"target":34962
		},
		{
			"buffer":0,
			"byteLength":384,
			"byteOffset":7789344,
			"target":34962
		},
		{
			"buffer":0,
			"byteLength":240,
			"byteOffset":7789728,
			"target":34963
		},
		{
			"buffer":0,
			"byteLength":4512,
			"byteOffset":7789968,
			"target":34962
		},
		{
			"buffer":0,
			"byteLength":4512,
			"byteOffset":7794480,
			"target":34962
		},
		{
			"buffer":0,
			"byteLength":3008,
			"byteOffset":7798992,
			"target":34962
		},
		{
			"buffer":0,
			"byteLength":2832,
			"byteOffset":7802000,
			"target":34963
		}
	],
	"buffers":[
		{
			"byteLength":7804832,
			"uri":"L300-9177f9bf965410c32536f361b57f0582.bin"
		}
	]
}
