{
	"asset":{
		"generator":"Khronos glTF Blender I/O v3.6.27",
		"version":"2.0"
	},
	"scene":0,
	"scenes":[
		{
			"extras":{
				"sun_pos_properties":{
					"show_surface":0,
					"show_analemmas":0,
					"show_north":0,
					"latitude":0.0,
					"day_of_year":286,
					"sun_object":{},
					"object_collection":{}
				}
			},
			"name":"Scene",
			"nodes":[
				8
			]
		}
	],
	"nodes":[
		{
			"name":"Posisi buah.001",
			"rotation":[
				-0.9345316886901855,
				-0.035900652408599854,
				-0.09835033863782883,
				0.3401307463645935
			],
			"scale":[
				2.343967914581299,
				2.3341944217681885,
				2.3370907306671143
			],
			"translation":[
				-0.17579759657382965,
				10.3760404586792,
				1.1954237222671509
			]
		},
		{
			"name":"Posisi buah.002",
			"rotation":[
				-0.6636115312576294,
				0.24285779893398285,
				0.6653122901916504,
				0.24083085358142853
			],
			"scale":[
				2.343967914581299,
				2.3341944217681885,
				2.3370907306671143
			],
			"translation":[
				1.2305831909179688,
				10.469132423400879,
				-0.03750348836183548
			]
		},
		{
			"name":"Posisi buah.003",
			"rotation":[
				-0.8679718971252441,
				0.1314338892698288,
				0.3600649833679199,
				0.3157581090927124
			],
			"scale":[
				2.3439676761627197,
				2.3341944217681885,
				2.3370907306671143
			],
			"translation":[
				0.7981211543083191,
				10.381795883178711,
				0.9258673787117004
			]
		},
		{
			"name":"Posisi buah.004",
			"rotation":[
				-0.8035481572151184,
				-0.19571803510189056,
				-0.41917282342910767,
				0.3745649755001068
			],
			"scale":[
				2.343967914581299,
				2.3370907306671143,
				2.3341944217681885
			],
			"translation":[
				-1.0665054321289062,
				10.166584014892578,
				0.6797507405281067
			]
		},
		{
			"name":"Posisi buah.005",
			"rotation":[
				-0.3615677058696747,
				0.3874322474002838,
				0.8310622572898865,
				0.1688213348388672
			],
			"scale":[
				2.343967914581299,
				2.3370907306671143,
				2.3341946601867676
			],
			"translation":[
				0.9493070840835571,
				10.178220748901367,
				-0.8789880275726318
			]
		},
		{
			"name":"Posisi buah.006",
			"rotation":[
				-0.24352167546749115,
				-0.3302666246891022,
				-0.907589852809906,
				0.08889231085777283
			],
			"scale":[
				2.3439676761627197,
				2.3341944217681885,
				2.3370907306671143
			],
			"translation":[
				-0.6914705634117126,
				10.352766990661621,
				-1.007906198501587
			]
		},
		{
			"name":"Posisi buah.007",
			"rotation":[
				-0.6356587409973145,
				-0.25127604603767395,
				-0.6920686364173889,
				0.2320334017276764
			],
			"scale":[
				2.343967914581299,
				2.3341944217681885,
				2.3370909690856934
			],
			"translation":[
				-1.2258951663970947,
				10.402793884277344,
				-0.26825588941574097
			]
		},
		{
			"name":"Posisi buah.008",
			"rotation":[
				-0.020790014415979385,
				0.40662911534309387,
				0.9133097529411316,
				0.009271196089684963
			],
			"scale":[
				2.3439676761627197,
				2.336514472961426,
				2.334771156311035
			],
			"translation":[
				0.0703190416097641,
				10.108402252197266,
				-1.2657427787780762
			]
		},
		{
			"children":[
				0,
				1,
				2,
				3,
				4,
				5,
				6,
				7
			],
			"mesh":0,
			"name":"Batang",
			"scale":[
				0.4266270101070404,
				0.429684579372406,
				0.4266270101070404
			],
			"translation":[
				0,
				0.036449313163757324,
				0
			]
		}
	],
	"materials":[
		{
			"doubleSided":true,
			"name":"Material.001",
			"pbrMetallicRoughness":{
				"baseColorFactor":[
					0.16999080777168274,
					0.09000242501497269,
					0.04962347447872162,
					1
				],
				"metallicFactor":0,
				"roughnessFactor":0.5
			}
		},
		{
			"doubleSided":true,
			"name":"leaf",
			"pbrMetallicRoughness":{
				"baseColorFactor":[
					0.026241177693009377,
					0.056128472089767456,
					0.011612258851528168,
					1
				],
				"metallicFactor":0,
				"roughnessFactor":0.5
			}
		},
		{
			"doubleSided":true,
			"name":"Material.002",
			"pbrMetallicRoughness":{
				"baseColorFactor":[
					0.16826923191547394,
					0.2122306227684021,
					0.034339871257543564,
					1
				],
				"metallicFactor":0,
				"roughnessFactor":0.5
			}
		}
	],
	"meshes":[
		{
			"name":"Cylinder.003",
			"primitives":[
				{
					"attributes":{
						"POSITION":0,
						"NORMAL":1,
						"TEXCOORD_0":2
					},
					"indices":3,
					"material":0
				},
				{
					"attributes":{
						"POSITION":4,
						"NORMAL":5,
						"TEXCOORD_0":6
					},
					"indices":7,
					"material":1
				},
				{
					"attributes":{
						"POSITION":8,
						"NORMAL":9,
						"TEXCOORD_0":10
					},
					"indices":11,
					"material":2
				}
			]
		}
	],
	"accessors":[
		{
			"bufferView":0,
			"componentType":5126,
			"count":18607,
			"max":[
				1.5281482934951782,
				10.123710632324219,
				1.5281981229782104
			],
			"min":[
				-1.5279721021652222,
				-0.06589033454656601,
				-1.5306034088134766
			],
			"type":"VEC3"
		},
		{
			"bufferView":1,
			"componentType":5126,
			"count":18607,
			"type":"VEC3"
		},
		{
			"bufferView":2,
			"componentType":5126,
			"count":18607,
			"type":"VEC2"
		},
		{
			"bufferView":3,
			"componentType":5123,
			"count":59592,
			"type":"SCALAR"
		},
		{
			"bufferView":4,
			"componentType":5126,
			"count":29497,
			"max":[
				14.758432388305664,
				22.848745346069336,
				14.827430725097656
			],
			"min":[
				-14.99903392791748,
				0.7411648035049438,
				-15.475334167480469
			],
			"type":"VEC3"
		},
		{
			"bufferView":5,
			"componentType":5126,
			"count":29497,
			"type":"VEC3"
		},
		{
			"bufferView":6,
			"componentType":5126,
			"count":29497,
			"type":"VEC2"
		},
		{
			"bufferView":7,
			"componentType":5123,
			"count":56250,
			"type":"SCALAR"
		},
		{
			"bufferView":8,
			"componentType":5126,
			"count":3048,
			"max":[
				14.758432388305664,
				22.848745346069336,
				14.827430725097656
			],
			"min":[
				-14.99903392791748,
				9.702957153320312,
				-15.475334167480469
			],
			"type":"VEC3"
		},
		{
			"bufferView":9,
			"componentType":5126,
			"count":3048,
			"type":"VEC3"
		},
		{
			"bufferView":10,
			"componentType":5126,
			"count":3048,
			"type":"VEC2"
		},
		{
			"bufferView":11,
			"componentType":5123,
			"count":9072,
			"type":"SCALAR"
		}
	],
	"bufferViews":[
		{
			"buffer":0,
			"byteLength":223284,
			"byteOffset":0,
			"target":34962
		},
		{
			"buffer":0,
			"byteLength":223284,
			"byteOffset":223284,
			"target":34962
		},
		{
			"buffer":0,
			"byteLength":148856,
			"byteOffset":446568,
			"target":34962
		},
		{
			"buffer":0,
			"byteLength":119184,
			"byteOffset":595424,
			"target":34963
		},
		{
			"buffer":0,
			"byteLength":353964,
			"byteOffset":714608,
			"target":34962
		},
		{
			"buffer":0,
			"byteLength":353964,
			"byteOffset":1068572,
			"target":34962
		},
		{
			"buffer":0,
			"byteLength":235976,
			"byteOffset":1422536,
			"target":34962
		},
		{
			"buffer":0,
			"byteLength":112500,
			"byteOffset":1658512,
			"target":34963
		},
		{
			"buffer":0,
			"byteLength":36576,
			"byteOffset":1771012,
			"target":34962
		},
		{
			"buffer":0,
			"byteLength":36576,
			"byteOffset":1807588,
			"target":34962
		},
		{
			"buffer":0,
			"byteLength":24384,
			"byteOffset":1844164,
			"target":34962
		},
		{
			"buffer":0,
			"byteLength":18144,
			"byteOffset":1868548,
			"target":34963
		}
	],
	"buffers":[
		{
			"byteLength":1886692,
			"uri":"Pohon%20Sawit%20tinggi%20%28_data%29-a2c70f2ac780155d883790d07a56808c.bin"
		}
	]
}
