{
	"asset":{
		"generator":"Khronos glTF Blender I/O v4.5.48",
		"version":"2.0"
	},
	"scene":0,
	"scenes":[
		{
			"name":"Scene",
			"nodes":[
				19
			]
		}
	],
	"nodes":[
		{
			"name":"spine.001",
			"rotation":[
				0.10414886474609375,
				-4.580551049571113e-08,
				-6.661522888862237e-08,
				0.9945617318153381
			],
			"scale":[
				1,
				0.9999998807907104,
				1
			],
			"translation":[
				1.9984014443252818e-14,
				0.05010349303483963,
				-5.960459503739912e-08
			]
		},
		{
			"children":[
				0
			],
			"name":"spine.002",
			"rotation":[
				0.11935563385486603,
				1.224419747813954e-07,
				3.60566225765524e-08,
				0.9928515553474426
			],
			"translation":[
				1.4210854715202004e-14,
				0.06602661311626434,
				-2.9802322387695312e-08
			]
		},
		{
			"children":[
				1
			],
			"name":"spine.003",
			"rotation":[
				-0.997539222240448,
				1.9627265146482387e-08,
				-1.7827730403041642e-07,
				0.07011087238788605
			],
			"scale":[
				1,
				1,
				1.0000014305114746
			],
			"translation":[
				-9.635243714001263e-10,
				2.9802286860558524e-08,
				7.049916206369744e-14
			]
		},
		{
			"name":"Kepala",
			"rotation":[
				0.08239652961492538,
				9.105203844228527e-07,
				1.2140884564360022e-07,
				0.9965996146202087
			],
			"translation":[
				0,
				0.1595534086227417,
				-2.2351748896198842e-08
			]
		},
		{
			"children":[
				3
			],
			"name":"spine.009",
			"rotation":[
				0.10219566524028778,
				-6.924901754246093e-07,
				7.67287815506279e-08,
				0.9947643280029297
			],
			"translation":[
				-2.5313826768069703e-07,
				0.20269177854061127,
				0.16645078361034393
			]
		},
		{
			"name":"front_shin.L",
			"rotation":[
				0.09050747752189636,
				-0.03937746584415436,
				0.029040103778243065,
				0.9946931600570679
			],
			"scale":[
				1.0000001192092896,
				1,
				1
			],
			"translation":[
				1.6785993040002722e-08,
				0.3308306634426117,
				-4.332924419259143e-08
			]
		},
		{
			"children":[
				5
			],
			"name":"front_thigh.L",
			"rotation":[
				0.6232790946960449,
				-3.893894700013334e-07,
				5.824138042953564e-07,
				0.7819994688034058
			],
			"scale":[
				1,
				0.9999999403953552,
				1
			],
			"translation":[
				0.1143110990524292,
				0.15200620889663696,
				0.31736698746681213
			]
		},
		{
			"name":"front_shin.R",
			"rotation":[
				0.09050732105970383,
				0.03937740623950958,
				-0.029040124267339706,
				0.9946932196617126
			],
			"scale":[
				1,
				0.9999999403953552,
				1
			],
			"translation":[
				-1.2275322092136776e-08,
				0.33083075284957886,
				-1.572451324705071e-08
			]
		},
		{
			"children":[
				7
			],
			"name":"front_thigh.R",
			"rotation":[
				0.6232790946960449,
				-7.417871188408753e-07,
				4.4553638645083993e-07,
				0.7819994688034058
			],
			"scale":[
				1,
				0.9999999403953552,
				1
			],
			"translation":[
				-0.11431200802326202,
				0.15200616419315338,
				0.3173666298389435
			]
		},
		{
			"children":[
				4,
				6,
				8
			],
			"name":"spine.008",
			"rotation":[
				0.034854378551244736,
				1.7729286128087551e-07,
				-5.950916204255918e-09,
				0.9993923902511597
			],
			"scale":[
				1,
				0.9999999403953552,
				1
			],
			"translation":[
				1.687538997430238e-14,
				0.24440129101276398,
				-5.261973967662925e-08
			]
		},
		{
			"children":[
				9
			],
			"name":"spine.007",
			"rotation":[
				0.055000998079776764,
				6.980691864555411e-07,
				1.2544869143482629e-08,
				0.998486340045929
			],
			"translation":[
				2.1316282072803006e-14,
				0.2634572386741638,
				1.490115053570662e-08
			]
		},
		{
			"children":[
				10
			],
			"name":"spine.006",
			"rotation":[
				0.1477271169424057,
				-7.296283115465485e-07,
				5.082486964624877e-08,
				0.9890281558036804
			],
			"scale":[
				1,
				0.9999999403953552,
				1
			],
			"translation":[
				-1.7763568394002505e-13,
				0.35807737708091736,
				1.4901280209755896e-08
			]
		},
		{
			"name":"shin.L",
			"rotation":[
				-0.2689380943775177,
				-0.034440066665410995,
				0.04080295190215111,
				0.9616763591766357
			],
			"scale":[
				1,
				0.9999999403953552,
				0.9999999403953552
			],
			"translation":[
				1.3087966266311923e-08,
				0.31989234685897827,
				-3.904165168933105e-08
			]
		},
		{
			"children":[
				12
			],
			"name":"thigh.L",
			"rotation":[
				0.8784038424491882,
				-2.896368016536144e-07,
				8.078390578702965e-07,
				0.47791916131973267
			],
			"scale":[
				1,
				0.9999998807907104,
				0.9999998211860657
			],
			"translation":[
				0.10993590205907822,
				0.22048519551753998,
				0.21671445667743683
			]
		},
		{
			"name":"shin.R",
			"rotation":[
				-0.26893824338912964,
				0.03444008529186249,
				-0.04080298915505409,
				0.961676299571991
			],
			"scale":[
				1,
				0.9999999403953552,
				0.9999999403953552
			],
			"translation":[
				-6.9527281709724775e-09,
				0.31989219784736633,
				1.887684319967775e-08
			]
		},
		{
			"children":[
				14
			],
			"name":"thigh.R",
			"rotation":[
				0.878403902053833,
				-4.0198187889473047e-07,
				2.1147982920410868e-07,
				0.47791898250579834
			],
			"scale":[
				1,
				1,
				1.0000001192092896
			],
			"translation":[
				-0.10993639379739761,
				0.22048525512218475,
				0.21671421825885773
			]
		},
		{
			"children":[
				11,
				13,
				15
			],
			"name":"spine.005",
			"rotation":[
				0.3825662136077881,
				2.90269127845022e-07,
				3.332148139634228e-07,
				0.9239280819892883
			],
			"translation":[
				-1.4210854715202004e-14,
				0.07011161744594574,
				-2.9802254886135415e-08
			]
		},
		{
			"children":[
				2,
				16
			],
			"name":"spine.004",
			"rotation":[
				0.1143750473856926,
				0.6977955102920532,
				-0.11437483876943588,
				0.6977952718734741
			],
			"scale":[
				0.9999999403953552,
				0.9999998211860657,
				0.9999998807907104
			],
			"translation":[
				-0.720562219619751,
				0.5548163056373596,
				-2.0834025349358853e-07
			]
		},
		{
			"mesh":0,
			"name":"Cylinder",
			"skin":0
		},
		{
			"children":[
				18,
				17
			],
			"name":"metarig"
		}
	],
	"materials":[
		{
			"doubleSided":true,
			"name":"Material",
			"pbrMetallicRoughness":{
				"baseColorFactor":[
					0.06907840073108673,
					0.04264231398701668,
					0.04264231398701668,
					1
				],
				"metallicFactor":0,
				"roughnessFactor":0.5
			}
		},
		{
			"doubleSided":true,
			"name":"Material.001",
			"pbrMetallicRoughness":{
				"baseColorFactor":[
					0.3280079662799835,
					0.32801368832588196,
					0.2589024007320404,
					1
				],
				"metallicFactor":0,
				"roughnessFactor":0.5
			}
		},
		{
			"doubleSided":true,
			"name":"Material.002",
			"pbrMetallicRoughness":{
				"baseColorFactor":[
					0.00933457538485527,
					0.006541181355714798,
					0.006541181355714798,
					1
				],
				"metallicFactor":0,
				"roughnessFactor":0.5
			}
		}
	],
	"meshes":[
		{
			"name":"Cylinder",
			"primitives":[
				{
					"attributes":{
						"POSITION":0,
						"NORMAL":1,
						"TEXCOORD_0":2,
						"JOINTS_0":3,
						"WEIGHTS_0":4
					},
					"indices":5,
					"material":0
				},
				{
					"attributes":{
						"POSITION":6,
						"NORMAL":7,
						"TEXCOORD_0":8,
						"JOINTS_0":9,
						"WEIGHTS_0":10
					},
					"indices":11,
					"material":1
				},
				{
					"attributes":{
						"POSITION":12,
						"NORMAL":13,
						"TEXCOORD_0":14,
						"JOINTS_0":15,
						"WEIGHTS_0":16
					},
					"indices":17,
					"material":2
				}
			]
		}
	],
	"skins":[
		{
			"inverseBindMatrices":18,
			"joints":[
				17,
				2,
				1,
				0,
				16,
				11,
				10,
				9,
				4,
				3,
				6,
				5,
				8,
				7,
				13,
				12,
				15,
				14
			],
			"name":"metarig"
		}
	],
	"accessors":[
		{
			"bufferView":0,
			"componentType":5126,
			"count":2906,
			"max":[
				0.9015019536018372,
				0.89130699634552,
				0.1978462040424347
			],
			"min":[
				-0.8226279020309448,
				0.013913601636886597,
				-0.1978462040424347
			],
			"type":"VEC3"
		},
		{
			"bufferView":1,
			"componentType":5126,
			"count":2906,
			"type":"VEC3"
		},
		{
			"bufferView":2,
			"componentType":5126,
			"count":2906,
			"type":"VEC2"
		},
		{
			"bufferView":3,
			"componentType":5121,
			"count":2906,
			"type":"VEC4"
		},
		{
			"bufferView":4,
			"componentType":5126,
			"count":2906,
			"type":"VEC4"
		},
		{
			"bufferView":5,
			"componentType":5123,
			"count":15366,
			"type":"SCALAR"
		},
		{
			"bufferView":6,
			"componentType":5126,
			"count":580,
			"max":[
				0.822751522064209,
				0.6307032704353333,
				0.20540457963943481
			],
			"min":[
				-0.38305896520614624,
				-0.025655925273895264,
				-0.20540457963943481
			],
			"type":"VEC3"
		},
		{
			"bufferView":7,
			"componentType":5126,
			"count":580,
			"type":"VEC3"
		},
		{
			"bufferView":8,
			"componentType":5126,
			"count":580,
			"type":"VEC2"
		},
		{
			"bufferView":9,
			"componentType":5121,
			"count":580,
			"type":"VEC4"
		},
		{
			"bufferView":10,
			"componentType":5126,
			"count":580,
			"type":"VEC4"
		},
		{
			"bufferView":11,
			"componentType":5123,
			"count":2496,
			"type":"SCALAR"
		},
		{
			"bufferView":12,
			"componentType":5126,
			"count":1798,
			"max":[
				0.6562972068786621,
				0.9711281657218933,
				0.15245497226715088
			],
			"min":[
				-0.89849853515625,
				0.36699366569519043,
				-0.15245497226715088
			],
			"type":"VEC3"
		},
		{
			"bufferView":13,
			"componentType":5126,
			"count":1798,
			"type":"VEC3"
		},
		{
			"bufferView":14,
			"componentType":5126,
			"count":1798,
			"type":"VEC2"
		},
		{
			"bufferView":15,
			"componentType":5121,
			"count":1798,
			"type":"VEC4"
		},
		{
			"bufferView":16,
			"componentType":5126,
			"count":1798,
			"type":"VEC4"
		},
		{
			"bufferView":17,
			"componentType":5123,
			"count":9216,
			"type":"SCALAR"
		},
		{
			"bufferView":18,
			"componentType":5126,
			"count":18,
			"type":"MAT4"
		}
	],
	"bufferViews":[
		{
			"buffer":0,
			"byteLength":34872,
			"byteOffset":0,
			"target":34962
		},
		{
			"buffer":0,
			"byteLength":34872,
			"byteOffset":34872,
			"target":34962
		},
		{
			"buffer":0,
			"byteLength":23248,
			"byteOffset":69744,
			"target":34962
		},
		{
			"buffer":0,
			"byteLength":11624,
			"byteOffset":92992,
			"target":34962
		},
		{
			"buffer":0,
			"byteLength":46496,
			"byteOffset":104616,
			"target":34962
		},
		{
			"buffer":0,
			"byteLength":30732,
			"byteOffset":151112,
			"target":34963
		},
		{
			"buffer":0,
			"byteLength":6960,
			"byteOffset":181844,
			"target":34962
		},
		{
			"buffer":0,
			"byteLength":6960,
			"byteOffset":188804,
			"target":34962
		},
		{
			"buffer":0,
			"byteLength":4640,
			"byteOffset":195764,
			"target":34962
		},
		{
			"buffer":0,
			"byteLength":2320,
			"byteOffset":200404,
			"target":34962
		},
		{
			"buffer":0,
			"byteLength":9280,
			"byteOffset":202724,
			"target":34962
		},
		{
			"buffer":0,
			"byteLength":4992,
			"byteOffset":212004,
			"target":34963
		},
		{
			"buffer":0,
			"byteLength":21576,
			"byteOffset":216996,
			"target":34962
		},
		{
			"buffer":0,
			"byteLength":21576,
			"byteOffset":238572,
			"target":34962
		},
		{
			"buffer":0,
			"byteLength":14384,
			"byteOffset":260148,
			"target":34962
		},
		{
			"buffer":0,
			"byteLength":7192,
			"byteOffset":274532,
			"target":34962
		},
		{
			"buffer":0,
			"byteLength":28768,
			"byteOffset":281724,
			"target":34962
		},
		{
			"buffer":0,
			"byteLength":18432,
			"byteOffset":310492,
			"target":34963
		},
		{
			"buffer":0,
			"byteLength":1152,
			"byteOffset":328924
		}
	],
	"buffers":[
		{
			"byteLength":330076,
			"uri":"Babi%20Hutan.bin"
		}
	]
}
