{
	"asset":{
		"generator":"Khronos glTF Blender I/O v4.5.48",
		"version":"2.0"
	},
	"scene":0,
	"scenes":[
		{
			"name":"Scene",
			"nodes":[
				0
			]
		}
	],
	"nodes":[
		{
			"mesh":0,
			"name":"Cube"
		}
	],
	"materials":[
		{
			"doubleSided":true,
			"name":"Buah",
			"pbrMetallicRoughness":{
				"baseColorFactor":[
					0.02095821499824524,
					0.017214080318808556,
					0.0199818667024374,
					1
				],
				"metallicFactor":0,
				"roughnessFactor":0.5
			}
		},
		{
			"doubleSided":true,
			"name":"Material",
			"pbrMetallicRoughness":{
				"baseColorFactor":[
					0.5127715468406677,
					0.24659115076065063,
					0.04856894910335541,
					1
				],
				"metallicFactor":0,
				"roughnessFactor":0.5
			}
		},
		{
			"doubleSided":true,
			"name":"Material.003",
			"pbrMetallicRoughness":{
				"baseColorFactor":[
					0.3563978970050812,
					0.2541523575782776,
					0.14126338064670563,
					1
				],
				"metallicFactor":0,
				"roughnessFactor":0.5
			}
		}
	],
	"meshes":[
		{
			"name":"Cube.001",
			"primitives":[
				{
					"attributes":{
						"POSITION":0,
						"NORMAL":1,
						"TEXCOORD_0":2
					},
					"indices":3,
					"material":0
				},
				{
					"attributes":{
						"POSITION":4,
						"NORMAL":5,
						"TEXCOORD_0":6
					},
					"indices":7,
					"material":1
				},
				{
					"attributes":{
						"POSITION":8,
						"NORMAL":9,
						"TEXCOORD_0":10
					},
					"indices":11,
					"material":2
				}
			]
		}
	],
	"accessors":[
		{
			"bufferView":0,
			"componentType":5126,
			"count":48992,
			"max":[
				0.20851284265518188,
				0.24585382640361786,
				0.18776482343673706
			],
			"min":[
				-0.22214718163013458,
				-0.26020148396492004,
				-0.19685302674770355
			],
			"type":"VEC3"
		},
		{
			"bufferView":1,
			"componentType":5126,
			"count":48992,
			"type":"VEC3"
		},
		{
			"bufferView":2,
			"componentType":5126,
			"count":48992,
			"type":"VEC2"
		},
		{
			"bufferView":3,
			"componentType":5123,
			"count":193146,
			"type":"SCALAR"
		},
		{
			"bufferView":4,
			"componentType":5126,
			"count":127,
			"max":[
				0.05270124226808548,
				0.3398812711238861,
				0.047442931681871414
			],
			"min":[
				-0.05289391800761223,
				0.2137322574853897,
				-0.04744291678071022
			],
			"type":"VEC3"
		},
		{
			"bufferView":5,
			"componentType":5126,
			"count":127,
			"type":"VEC3"
		},
		{
			"bufferView":6,
			"componentType":5126,
			"count":127,
			"type":"VEC2"
		},
		{
			"bufferView":7,
			"componentType":5123,
			"count":468,
			"type":"SCALAR"
		},
		{
			"bufferView":8,
			"componentType":5126,
			"count":25589,
			"max":[
				0.24706505239009857,
				0.3398812711238861,
				0.2159692645072937
			],
			"min":[
				-0.25306642055511475,
				-0.27582961320877075,
				-0.2263132482767105
			],
			"type":"VEC3"
		},
		{
			"bufferView":9,
			"componentType":5126,
			"count":25589,
			"type":"VEC3"
		},
		{
			"bufferView":10,
			"componentType":5126,
			"count":25589,
			"type":"VEC2"
		},
		{
			"bufferView":11,
			"componentType":5123,
			"count":42003,
			"type":"SCALAR"
		}
	],
	"bufferViews":[
		{
			"buffer":0,
			"byteLength":587904,
			"byteOffset":0,
			"target":34962
		},
		{
			"buffer":0,
			"byteLength":587904,
			"byteOffset":587904,
			"target":34962
		},
		{
			"buffer":0,
			"byteLength":391936,
			"byteOffset":1175808,
			"target":34962
		},
		{
			"buffer":0,
			"byteLength":386292,
			"byteOffset":1567744,
			"target":34963
		},
		{
			"buffer":0,
			"byteLength":1524,
			"byteOffset":1954036,
			"target":34962
		},
		{
			"buffer":0,
			"byteLength":1524,
			"byteOffset":1955560,
			"target":34962
		},
		{
			"buffer":0,
			"byteLength":1016,
			"byteOffset":1957084,
			"target":34962
		},
		{
			"buffer":0,
			"byteLength":936,
			"byteOffset":1958100,
			"target":34963
		},
		{
			"buffer":0,
			"byteLength":307068,
			"byteOffset":1959036,
			"target":34962
		},
		{
			"buffer":0,
			"byteLength":307068,
			"byteOffset":2266104,
			"target":34962
		},
		{
			"buffer":0,
			"byteLength":204712,
			"byteOffset":2573172,
			"target":34962
		},
		{
			"buffer":0,
			"byteLength":84006,
			"byteOffset":2777884,
			"target":34963
		}
	],
	"buffers":[
		{
			"byteLength":2861892,
			"uri":"Buah_Sawit_Mentah.bin"
		}
	]
}
