{
	"asset":{
		"generator":"Khronos glTF Blender I/O v4.5.48",
		"version":"2.0"
	},
	"scene":0,
	"scenes":[
		{
			"name":"Scene",
			"nodes":[
				0
			]
		}
	],
	"nodes":[
		{
			"mesh":0,
			"name":"Batang",
			"scale":[
				0.4266270101070404,
				0.429684579372406,
				0.4266270101070404
			],
			"translation":[
				0,
				0.036449313163757324,
				0
			]
		}
	],
	"materials":[
		{
			"doubleSided":true,
			"name":"Material.001",
			"pbrMetallicRoughness":{
				"baseColorFactor":[
					0.16999080777168274,
					0.09000242501497269,
					0.04962347447872162,
					1
				],
				"metallicFactor":0,
				"roughnessFactor":0.5
			}
		},
		{
			"doubleSided":true,
			"name":"leaf",
			"pbrMetallicRoughness":{
				"baseColorFactor":[
					0.026241177693009377,
					0.056128472089767456,
					0.011612258851528168,
					1
				],
				"metallicFactor":0,
				"roughnessFactor":0.5
			}
		},
		{
			"doubleSided":true,
			"name":"Material.002",
			"pbrMetallicRoughness":{
				"baseColorFactor":[
					0.16826923191547394,
					0.2122306227684021,
					0.034339871257543564,
					1
				],
				"metallicFactor":0,
				"roughnessFactor":0.5
			}
		}
	],
	"meshes":[
		{
			"name":"Cylinder.003",
			"primitives":[
				{
					"attributes":{
						"POSITION":0,
						"NORMAL":1,
						"TEXCOORD_0":2
					},
					"indices":3,
					"material":0
				},
				{
					"attributes":{
						"POSITION":4,
						"NORMAL":5,
						"TEXCOORD_0":6
					},
					"indices":7,
					"material":1
				},
				{
					"attributes":{
						"POSITION":8,
						"NORMAL":9,
						"TEXCOORD_0":10
					},
					"indices":11,
					"material":2
				}
			]
		}
	],
	"accessors":[
		{
			"bufferView":0,
			"componentType":5126,
			"count":10999,
			"max":[
				1.5281482934951782,
				10.123773574829102,
				1.5263217687606812
			],
			"min":[
				-1.5279721021652222,
				-0.06924687325954437,
				-1.5306034088134766
			],
			"type":"VEC3"
		},
		{
			"bufferView":1,
			"componentType":5126,
			"count":10999,
			"type":"VEC3"
		},
		{
			"bufferView":2,
			"componentType":5126,
			"count":10999,
			"type":"VEC2"
		},
		{
			"bufferView":3,
			"componentType":5123,
			"count":20856,
			"type":"SCALAR"
		},
		{
			"bufferView":4,
			"componentType":5126,
			"count":2268,
			"max":[
				14.755420684814453,
				22.84331512451172,
				14.822261810302734
			],
			"min":[
				-14.999726295471191,
				10.794833183288574,
				-15.475049018859863
			],
			"type":"VEC3"
		},
		{
			"bufferView":5,
			"componentType":5126,
			"count":2268,
			"type":"VEC3"
		},
		{
			"bufferView":6,
			"componentType":5126,
			"count":2268,
			"type":"VEC2"
		},
		{
			"bufferView":7,
			"componentType":5123,
			"count":5052,
			"type":"SCALAR"
		},
		{
			"bufferView":8,
			"componentType":5126,
			"count":968,
			"max":[
				8.639694213867188,
				20.546672821044922,
				8.653092384338379
			],
			"min":[
				-8.90389347076416,
				9.791218757629395,
				-9.34222412109375
			],
			"type":"VEC3"
		},
		{
			"bufferView":9,
			"componentType":5126,
			"count":968,
			"type":"VEC3"
		},
		{
			"bufferView":10,
			"componentType":5126,
			"count":968,
			"type":"VEC2"
		},
		{
			"bufferView":11,
			"componentType":5123,
			"count":1896,
			"type":"SCALAR"
		}
	],
	"bufferViews":[
		{
			"buffer":0,
			"byteLength":131988,
			"byteOffset":0,
			"target":34962
		},
		{
			"buffer":0,
			"byteLength":131988,
			"byteOffset":131988,
			"target":34962
		},
		{
			"buffer":0,
			"byteLength":87992,
			"byteOffset":263976,
			"target":34962
		},
		{
			"buffer":0,
			"byteLength":41712,
			"byteOffset":351968,
			"target":34963
		},
		{
			"buffer":0,
			"byteLength":27216,
			"byteOffset":393680,
			"target":34962
		},
		{
			"buffer":0,
			"byteLength":27216,
			"byteOffset":420896,
			"target":34962
		},
		{
			"buffer":0,
			"byteLength":18144,
			"byteOffset":448112,
			"target":34962
		},
		{
			"buffer":0,
			"byteLength":10104,
			"byteOffset":466256,
			"target":34963
		},
		{
			"buffer":0,
			"byteLength":11616,
			"byteOffset":476360,
			"target":34962
		},
		{
			"buffer":0,
			"byteLength":11616,
			"byteOffset":487976,
			"target":34962
		},
		{
			"buffer":0,
			"byteLength":7744,
			"byteOffset":499592,
			"target":34962
		},
		{
			"buffer":0,
			"byteLength":3792,
			"byteOffset":507336,
			"target":34963
		}
	],
	"buffers":[
		{
			"byteLength":511128,
			"uri":"Pohon_Sawit_LowMesh.bin"
		}
	]
}
