{
	"asset":{
		"generator":"Khronos glTF Blender I/O v4.5.48",
		"version":"2.0"
	},
	"scene":0,
	"scenes":[
		{
			"name":"Scene",
			"nodes":[
				0
			]
		}
	],
	"nodes":[
		{
			"mesh":0,
			"name":"Tanah",
			"scale":[
				50,
				1,
				50
			]
		}
	],
	"materials":[
		{
			"doubleSided":true,
			"name":"Material.001",
			"pbrMetallicRoughness":{
				"baseColorFactor":[
					0.10089871287345886,
					0.14147722721099854,
					0.039935849606990814,
					1
				],
				"metallicFactor":0,
				"roughnessFactor":0.5
			}
		}
	],
	"meshes":[
		{
			"name":"Plane.001",
			"primitives":[
				{
					"attributes":{
						"POSITION":0,
						"NORMAL":1,
						"TEXCOORD_0":2
					},
					"indices":3,
					"material":0
				}
			]
		}
	],
	"accessors":[
		{
			"bufferView":0,
			"componentType":5126,
			"count":2025,
			"max":[
				1.02765691280365,
				0.366251140832901,
				1.0023530721664429
			],
			"min":[
				-1.0199047327041626,
				-2.387179374694824,
				-1.0027987957000732
			],
			"type":"VEC3"
		},
		{
			"bufferView":1,
			"componentType":5126,
			"count":2025,
			"type":"VEC3"
		},
		{
			"bufferView":2,
			"componentType":5126,
			"count":2025,
			"type":"VEC2"
		},
		{
			"bufferView":3,
			"componentType":5123,
			"count":11616,
			"type":"SCALAR"
		}
	],
	"bufferViews":[
		{
			"buffer":0,
			"byteLength":24300,
			"byteOffset":0,
			"target":34962
		},
		{
			"buffer":0,
			"byteLength":24300,
			"byteOffset":24300,
			"target":34962
		},
		{
			"buffer":0,
			"byteLength":16200,
			"byteOffset":48600,
			"target":34962
		},
		{
			"buffer":0,
			"byteLength":23232,
			"byteOffset":64800,
			"target":34963
		}
	],
	"buffers":[
		{
			"byteLength":88032,
			"uri":"Tanah.bin"
		}
	]
}
