{
	"asset":{
		"generator":"Khronos glTF Blender I/O v4.5.48",
		"version":"2.0"
	},
	"scene":0,
	"scenes":[
		{
			"name":"Scene",
			"nodes":[
				0
			]
		}
	],
	"nodes":[
		{
			"mesh":0,
			"name":"Tojok",
			"rotation":[
				0,
				0,
				-0.7071068286895752,
				0.7071068286895752
			],
			"translation":[
				0.00029600149719044566,
				0.4810713827610016,
				0
			]
		}
	],
	"materials":[
		{
			"doubleSided":true,
			"name":"Material.001",
			"pbrMetallicRoughness":{
				"baseColorFactor":[
					0.1643902063369751,
					0.1643902063369751,
					0.1643902063369751,
					1
				],
				"roughnessFactor":0.5
			}
		}
	],
	"meshes":[
		{
			"name":"Cylinder.001",
			"primitives":[
				{
					"attributes":{
						"POSITION":0,
						"NORMAL":1,
						"TEXCOORD_0":2
					},
					"indices":3,
					"material":0
				}
			]
		}
	],
	"accessors":[
		{
			"bufferView":0,
			"componentType":5126,
			"count":939,
			"max":[
				0.9825206398963928,
				0.05999999865889549,
				0.017500000074505806
			],
			"min":[
				-0.017479388043284416,
				-0.05999999865889549,
				-0.017500000074505806
			],
			"type":"VEC3"
		},
		{
			"bufferView":1,
			"componentType":5126,
			"count":939,
			"type":"VEC3"
		},
		{
			"bufferView":2,
			"componentType":5126,
			"count":939,
			"type":"VEC2"
		},
		{
			"bufferView":3,
			"componentType":5123,
			"count":3462,
			"type":"SCALAR"
		}
	],
	"bufferViews":[
		{
			"buffer":0,
			"byteLength":11268,
			"byteOffset":0,
			"target":34962
		},
		{
			"buffer":0,
			"byteLength":11268,
			"byteOffset":11268,
			"target":34962
		},
		{
			"buffer":0,
			"byteLength":7512,
			"byteOffset":22536,
			"target":34962
		},
		{
			"buffer":0,
			"byteLength":6924,
			"byteOffset":30048,
			"target":34963
		}
	],
	"buffers":[
		{
			"byteLength":36972,
			"uri":"Tojok.bin"
		}
	]
}
